<mxfile host="app.diagrams.net" agent="Mozilla/5.0 (Windows NT 10.0; Win64; x64) AppleWebKit/537.36 (KHTML, like Gecko) Chrome/132.0.0.0 Safari/537.36" version="26.0.12">
  <diagram name="Page-1" id="D8qkUaNAJtrxFoyzigPn">
    <mxGraphModel dx="864" dy="2026" grid="1" gridSize="10" guides="1" tooltips="1" connect="1" arrows="1" fold="1" page="1" pageScale="1" pageWidth="850" pageHeight="1100" math="0" shadow="0">
      <root>
        <mxCell id="0" />
        <mxCell id="1" parent="0" />
        <mxCell id="m3cZQxR7HmldRvMj8H7n-1" value="" style="ellipse;html=1;shape=startState;fillColor=#000000;strokeColor=#ff0000;" vertex="1" parent="1">
          <mxGeometry x="360" y="30" width="30" height="30" as="geometry" />
        </mxCell>
        <mxCell id="m3cZQxR7HmldRvMj8H7n-2" value="" style="edgeStyle=orthogonalEdgeStyle;html=1;verticalAlign=bottom;endArrow=open;endSize=8;strokeColor=#ff0000;rounded=0;" edge="1" source="m3cZQxR7HmldRvMj8H7n-1" parent="1">
          <mxGeometry relative="1" as="geometry">
            <mxPoint x="375" y="120" as="targetPoint" />
          </mxGeometry>
        </mxCell>
        <mxCell id="m3cZQxR7HmldRvMj8H7n-3" value="" style="ellipse;html=1;shape=endState;fillColor=#000000;strokeColor=#ff0000;" vertex="1" parent="1">
          <mxGeometry x="725" y="467" width="30" height="30" as="geometry" />
        </mxCell>
        <mxCell id="m3cZQxR7HmldRvMj8H7n-4" value="" style="shape=image;verticalLabelPosition=bottom;labelBackgroundColor=default;verticalAlign=top;aspect=fixed;imageAspect=0;image=data:image/png,iVBORw0KGgoAAAANSUhEUgAAAg8AAAH9CAIAAAAS9Qh6AAAgAElEQVR4Aey9DVxT59nHn/D+puBbUfElFjUKYkqRAsU2EpdGQ+mpoSBm2kxTyUzqS2FCDXNYHzo2S2nrmKitstEnjtVp99CRrVZgw8FmpaRP/eO2arO127B7LEs7lw//jmfP+f/PS5KTN8jLSXJOcvHhoyfn3Oe6r/t33dzfXOec+z6c//fLf8EvKAAKgAKgACgwtQIcFH5AgaAr8MMf/jA7Ozs2NpaD/0RFRS1atKixsTHojkCFoAAo4KkCQAtPlYJydCmwatUqLpdLcIL6b3R09OzZswcHB+mqCOyAAqAAjQoALWgUE0xNo8Dk5OTMmTNjYmKokHDYjoqK+ulPfzqNITgMCoACQVcAaBF0ySO4wiVLlkyNCoIc8fHxESwSNB0UYKgCQAuGBib83GpsbIyOjnbIJFx+jImJEYlE4acAtAgUYLUCQAtWh49Nzs+ZM8clG1zujIqKYlPbwFdQIAIUiCRa3DWZ7roIqelSi+663X7nPXaH6ftgutIk29w24qXBG50tvXcs50z01Ja0jKDoxB3ThGUfA///97//7ZIK7nZGR0e/+uqrDGwIuAQKRKwCkUOLiQu70zgVOpNTqI3HRZpLdnud99gdpu2DsW2zpmfSa3O9e0VtN61nTZjuTKCosU2s6bXuY97Gz3/+86ioKHdscN4fExPz1FNPMa8d4BEoELkKRAwt7l5QVrS17Za9dhsP9uTtC3tFuetyi8TKhj04LZz3WHqF6VqLfF1u7roi2bcb5OI2o2U/ekmTW6GUbZHJ1ufKTuC7TSMt23KlFTJRiVJ3E0V/0yD6Np45XNKkEaC62SY7NEQYMHbKl82dv3pdQy+K3tbXSrEqckU7dcZJFJ283XNQmovtESk7bZYxh7c0Neyg0qJXI277FWkqt6EPxb2VyipEpCm0V7NOptwik1UUFe3Q9b5RK9spk95XVHvJmZvWhtG/0dXV5eFNC4IcMTEx27Zto98PsAgKgAK+KhAptDB1ypRvTExcVEqPY4OvqVMmwjdQ1HRhZ5rmkos9FkmHGgo1PcTQamgqsqfFMnLoN7aJlRfuokOHRU3X8PMmhxo2t9xAhxoqMLoMHdYod2IFTJ1ySh5jSQju6OSb2zBIoKjpDaXo2A3TOTnhJ+6eqOU6OnS4SKPHnZgcaSp0pIXRllsMNYibRoh85UqD9NgNFO3VLG8YwveMHM3NPYrTaxIvZmlhEP5/9913Xc6xcM4qiD2xsbHf+MY3guAYVAEKgAIeKhAhtLj9WgU2WKPkII5SL+YQ152c95AK3mwT7emxqIl9kafmFhbkEAaNbeLVogqZDPuVigqxpGHokFJ3Z6hhp874hlJzyXRht6bXdunJQou+Wqsd9GabaG9v7zM2HuDuYSWt16yormIwwFyymLrZJlolwh2QycpERYd7LQWwFlCusFnKWxoWhP+9uhLF5XKvXLkSBK+gClAAFPBQgcigxc026Xp57cHa2oO1ys3SlutYJiE7S1yTMvXsWUbkFg57LAoONRSS382xoXwqWlBzixHd0R6MK5c0ykMNmk4TeveC5lBD7Z4LlHvRliH7jk62hbxCRuYWFPcu7CRziwZi8Jw0toltLLHAwGIKpeQWBl1Tt9FSAGtNaGlx//33ew6MlJQUi/7wPygACjBCgYigxY1jlPvYVxqKDg2hk0bdjqKiCo1yi7yWvG/htMcSINOVJul9UuUeueyQxuG+hTUnIL/vm4aaykSyPRpZibTpCnHhqLd2vhS/KW3SVXCUb1BgYU0IUNTYKS/arKzdKbXct8Ccke6sVZZZ71sMNW3Ole7UyLc0aJzuW2AXu44WFW3R6K6jmLclMs0emaisaQhzwZYPhZYW7777rrvrTg77o6KiDh8+bJEf/gcFQAFGKBARtGCE0uAEij755JPTphexsbFr164FtUABUIBpCgAtmBaRMPfn8ccfn+J2d3R09KpVq8JcAmgeKMBOBYAW7Iwbm71+6aWXUlJSoqKirM/UEtsxMTHV1dVsbhn4DgqEswJAi3COLpPbptPpEARZsGBBamrqV77ylZaWFiZ7C76BAqAA0AL6QCgVOHXqFOQToQwA1A0KeKwA0MJjqaBgABQAWgRAVDAJCgREAaBFQGQFox4qALTwUCgoBgqEXAGgRchDENEOAC0iOvzQeFYpALRgVbjCzlmgRdiFFBoUtgoALcI2tKxoGNCCFWECJ0EBFEWBFtANQqkA0CKU6kPdoIA3CgAtvFELytKtANCCbkXBHigQKAWAFoFSFux6ogDQwhOVoAwowAQFgBZMiELk+gC0iNzYQ8vZpgDQgm0RCy9/gRbhFU9oTTgrALQI5+gyv21AC+bHCDwEBQgFgBbQE0KpANAilOpD3aCANwoALbxRC8rSrQDQgm5FwR4oECgFgBaBUhbseqIA0MITlaAMKMAEBYAWTIhC5PoAtIjc2EPL2aYA0IJtEQsLf7/88kuiHVRafPLJJ2HROGgEKBCeCgAtwjOuDG/VAw88cPHiRRRFn3322ccffxxF0Vu3biUkJHz22WcM9xzcAwUiVgGgRcSGPpQN7+rqeuihh1AUteYWarVaq9WG0ieoGxQABaZUAGgxpTxwMGAKEOkFQQtILAImMxgGBWhTAGhBm5RgyCsFiPSCoAUkFl5JB4VBgZAoALQIiexQKabAAw88sGfPnqqqKrhjAR0CFGC+AkAL5scobD3s6upavnx5VlYW3LEI2xhDw8JIAaBFGAWThU1ZtGhRVFQUPArFwtCByxGnANAi4kLuYYOvXLmyc+fOvHX5K1etCtzvgoUL586bFzj7K1etWiu474knnujq6vKw4VAMFAAFXCoAtHApS0Tv7OjoSF+wgMvlzl7EW75esqa0itW//JKyezJXR8fGJqfMqK+vj+jQQuNBAT8UAFr4IV44nvroo49yudxVX9miNZjD7Lfgyf2xcfGrs7PDMW7QJlAg4AoALQIuMYsqKCkpiU9Klp/ShxknrM159ppp9sIli5cuZVFQwFVQgCEKAC0YEojQu3Hw4MHomNinfnzVOraG68bMuekbNmwIveLgASjAKgWAFqwKVyCdjY2Le0ilDVdCUNv1tc5fcjicd955J5Bygm1QINwUAFqEW0R9a8/TTz+dMmsOdUgN7+1Fawvy1q3zTSs4CxSITAWAFpEZd8dWL1q8ZC2yI7wJQW2d7AVdTGysowrwGRQABdwrALRwr00kHYmJjd36/Z9Sx9Ow3+Zyub/73e8iKcjQVlDALwWAFn7JFzYnczicA30fhz0hqA2MjYt/8803wyaC0BBQINAKAC0CrTA77HM4nJorY9TBNOy3Y+MTzp8/z47wgJegAAMUAFowIAgMcAFowYAggAugAKMVAFowOjxBcw5oETSpoSJQgKUKAC1YGjia3QZa0CwomAMFwk4BoEXYhdSnBgEtfJINTgIFIkgBoEUEBXuKpgItphAHDoECoACKokAL6AaYAkAL6AegACgwtQJAi6n1iZSjAaVF3cCI4uW+6oFx7Knc4fEaYmPqFdGvjtUMBnbJdJdP0Pb19V27di1Sog7tBAW8UQBo4Y1a4Vs2cLSoO72PJ2vd+vKJgvwCYadZ293Kq/JgRfR2Fa9+NKBzPhxo0dfXV1ZWtmLFipMnT4ZvnKFloIDvCgAtfNcunM4MHC3k2wVCHZ4lYOnCKLKJlzCHn55VJzeY9x9T8bIE6TlCwW4VjhB9Xr6qYJMgu+lsMS89YaEgvbRDPXUK4sdRKy2AE+HUk6EtgVMAaBE4bdlkOXC00Ha38vkSwYETim78SpQ1t+jv4Be2qocxkNQcUyRgCYc+L01RPoCjJSi5xZEjRyCfYFM3DZGv//znP0NUM7OqBVowKx6h8iaAtMC//tf9YqhUJshuHrNdiaLygESIPq+wlUwmqEf9SCCmuJYVG58QFxfHgR9QwAMFUlJS7r///kOHDv3lL38J1R9pyOsFWoQ8BIxwIHC0qD5Wh3Th6YKukbe7z0aL/g6+6MR+nAQ1bao0IrcILi0gt2BE52ODE//617/efffdmpqa1NTUn/3sZ2xwmX4fgRb0a8pGi4Gjhba7IztXIlAoMnNV5ZfN2uE+YU4Bv6Kj2mBWN1Vm5CJ5CJKtsNy3sNLickc2Tyio1dcEJrHQGsxw34KNHTXkPv/sZz9LTU2NzAwDaBHy7scIBwJIi4AN91NcZfLkkJUWRADgXjcjOiIbnKipqTl06BAbPKXZR6AFzYKy1BzQgggczLdgaQcOptvvvvvu/fffH8waGVIX0IIhgQixG0CLEAcAqmePAv/6179SUlLY4y9tngItaJOS1YaAFqwOHzgfZAWOHDkS5BqZUB3QgglRCL0PQIvQxwA8YI8CHE4kjpyR2Gb29MngeQq0CJ7WUBP7FQBasD+G0AJfFQBa+KocnBeJCgAtIjHq0GZCAaAF9ARQwHMFgBaeawUlw00BDodzoO9jT6YphE2Z2Lj4N998M9wCCe0JigJAi6DIDJUwUoGY2Nit3/9p2JDAk4Zwudzf/e53jIwGOMV0BYAWTI8Q+Bc4BRYtXrIW2eHJIBseZWQv6GJiYwOnJ1gObwWAFuEdX2jdVAo8/fTTKbPmhAcJPGnForUFeevWTaUIHAMF3CsAtHCvDRyJAAVi4+IeUmk9GWrZXuZrnb/kcDjvvPNOBEQVmhgQBYAWAZEVjLJFgYMHD0bHxD7146tsh8G0/s+cm75hwwa2xAX8ZKACQAsGBgVcCqoCJSUl8UnJ8lMevDebqSvLTo2KZ6+ZZi9csnjp0qDKCpWFnQJAi7ALKTTIewUeffRRLpe76itbph522Xi04Mn9sXHxq7OzvVcFzgAF7BQAWtjJAR8iVoGOjo70BQu4XO7sRbzl6yVrSqtY/csvKbsnc3V0bGxyyoz6+vqIDSs0nEYFgBY0igmmWK/AlStXdu7cmbcuf+WqVYH7XbpsWXxCQuDsr1y1aq3gvieeeKKrq4v1IYEGMEYBoAVjQgGORIwCBoPhvvvui5jmQkPDRAGgRZgEEprBIgX++7//e+3atSxyGFwFBVAUBVpANwAFgq3A9evX16xZE+xaoT5QwD8FgBb+6QdngwLeKzA6OpqVleX9eXAGKBBKBYAWoVQf6o5MBW7cuLFq1arIbDu0mr0KAC3YGzvwnK0K/P73v+fz+Wz1HvyOVAWAFpEaeWh36BT48MMPV6xYEbr6oWZQwBcFgBa+qAbngAL+KHDr1q3MzEx/LMC5oEDwFQBaBF9zqDHSFTAajcuWLYt0FaD9bFMAaMG2iIG/7FfgT3/601JY44/9cYy0FgAtIi3i0N7QK/DJJ58sXrw49H4wyYNf/OIX3/jGN3bs2LGdzT9KpbKlpeXOnTtBlva999771re+pVAoAioeh8MJqH2FQvHcc89dv349yOpNXR1n6sNwFBQIqAJ/+ctfMjIyAloFi4yXl5fHJyRER8fMnLdg3rKV9yzjs/d3zpJ7E2ekcjicjMVLTp8+HYQoHDhwYGZqGpfLTZk9dx5vRUClm7skM7D2eStSZs3hcrlps2YzZylMoEUQujFU4VaBsbGxBQsWuD0cMQd+9KMfJSYnp85bID54jI2rwbvzed87H/E3ItyoqMLCwsAF809/+tP8hRkJSSkFT+535wlL96+r+npcQuLipTyTyRQ4AT20DLTwUCgoFhAFPv300/T09ICYZo/REydOcLncNdKtLB3RpnV7T/cHM+fN590bkIffRkdHExITF60tmNYN9hZYsOq+5BkzPv3009B2aqBFaPWP9Nr/53/+Z968eZGswq1bt6JjYvIqq9k7lnno+cy56Q8WF9Me69lz5i7Je8hDH9hbLGNN3vwFC2lXzyuDQAuv5ILCNCtw586duXPn0myUVeb4q1cvzM5j7yjmuefVF97jcrmdnZ00xqeioiJl9lzPfWB1ycQZqbt27aJRPW9NAS28VQzK06nA+Pj47Nmz6bTIKluDg4McDmffOx+xehTz3PkVD2+m93pUTGzs5objnjvA6pIle5+LT0gMYQcHWoRQ/Mit+tq1az/+8Y9RFDWZTGlpaYQQzc3N7777bmBEmTDdMZG/d13VcF3XcikEdxEff/zxecv4Loawq2M1g2Zy/+BYzVXLtsHjjasXC/KblZ6Xdyg5PF4zMI45YLXT3SEQqcp/MSIRKcr7p3SjX7+xacRFowxm1U/f53A4k5OTrmLg9b6XX345PilZazDX9Y/Vkf6P1/Tjbjs0Z5qPHjRqGgtTCuL+3LqBsbrh6c6l6BkTF/f66697rRRNJwAtaBISzHijwMWLF/Pz81EU/eKLL2bOnImi6OTk5D333GMwGLwx43nZXs06zWvdPT3dPb03J1ycdkkjOm50sT/AuzIWLc7b6uqORbuKVz9KDLjqemFe+3QDiovxyLdx01JRdyuvSo87QNqRbxdKurGjlKHZUtihdtu5LgrEJya9+uqrtOi6efPmhVn3aw2jkkKVnPRBn1fYqnbwx4OP0zfKAyMuATn1TnkVqepUxSh63nMvf+vWrbSo54MRoIUPosEpNCggFAr/8z//8+7duykpKSiKvvDCC3K5nAa7rk30asRtNhpM3r6wV5S7LrdIrGzYI9JcQlGSFkbdTpG0Qla0Xq67iaKmkZZtudIKmahEiX0MwE9ySor08PddjBQuaDGKIMJMMZKRW4l0m7UDQxs3CTLFCC9fgX3ERszKPIUwfTcxxJu1BmLcHFfslfDESCZfIuy0fukelRQKs2VItliSnrtPPoCN6fvb9mVmCdKzBDykQz08imziJczhp2fVyQk7p+vmzklN41ciPZah2dEB8/5jKl6WID1HKNitspDGBS3S0jOeeeYZWrTMXrNm9SMyV7RwbDXmWz7CFwoy1X01BrO6XphdtY+HtY7wkGxUXWdjZj7CLxZk7u2zJCt44V2N/PyCdD55urZdxavYl51VifQ46GbWtqvSxQq+COHnFmQ36csViMAmsj4vX1VcIcFUIoJIqirIbhp1CqhrPe99UFxQEMBnkaeOC9Bian3gaKAU6O7uzs3NNZvNSUlJKIpmZGQE7DIUiqLW3GLkNoqaOmWWTMJ0YWeajRZ/bJPu0GEXpAzYhamhw6Kma3jzJ4caNrfcCIASiUlJjz1/xiNa9LRmlnbUGMzaro6N7WOK3UKhDh/phvuKi5urMVoUCLuoozNBC31BTqNy2Ky9fJFydWhUUoiUXsYLt6sy9g5p+zuyi1vV+CWRmmMK3oERre37LPlt3fItmBxYHR3o7+AX2iwkkHkJ1R9ye/bCJRqNhhYtV65ataa0yhUt7Fvd38EnpDOY9x9BBC+Oq+uFWKtt6QLZKPn2AlxV49YDHdWWo+p6YZpCT8BDuVcoeHFc265KQM5hsXDWrV2VtqsPszw8JMwSkDE6W8fDqtPncZDSX+A6DJwT5DdXG8wWVc0e6rlCKL0/L48W9XwwArTwQTQ4hR4FNm7c+OqrryYkJLz00kuVlZX0GHVtpVdT0jSC37qYQNHevaI2S65gPE7NLSZunNPICkWyoz3GCWObeLWoQibDfqWiwoZe15b92usFLQzj1c0qfo6Qr76ovjoqKeTzxAgf+5XwcurkdldjiHGZHOVrTjfzCwv4VScUtpsNlvzAYCapcHqf9cIXuWcaWjg5QEmGKKQJFS3Mdq1uVyVnSXCtEH6xMLtp1OninkWQfv1GsTBDpCrtHLOyxK4w0UxrY511sx6iRoQUk4wIbtnCJ/JKlKd6Ai38+nuDk9mrgF6vX7NmTVxc3NKlS4eGhgLZELsrUaZOmezsbbw6U8+eZbbc4q6x14Dtn7jSID9upOQWI7qjPbYLWfQ56pYW55szia+oBrNSLSzuNGsHR+VdRuy2wdm67PpRylfRIUR9UU0dm8gvxcTYZFSeHsW+F18+wbd937cMjlZa9HfwRSf24yd6n1vgDlAttKnSbHU5AiMAucV4ucySKg10ZIs7agz2rabmFm3NpTost7C/FUQKsr9Lrx40a4eNpWLrjRDsSlS6mkxErLkFCVdqq4mcbGpacCoR/LqfdqrcYio9gRb0/fGBJbYp8Mgjj3C5XJlMFmDH7WiBThp1O4qKKjTKLfJa6n2LSaNup1S2p1ZZJm0xoKhpqKlMJNujkZVIm64E5Ikpt7QwjCnUkvRiRZ5YyFPosYsew6MIIuFX7BMIJRu7zNqBPqFQyK9Q8fMlwrNj9ldjqLkFZicT2ZcnluS9iMGG+sUW27bkEOqmyoxiRQEiwe9bmLXDfcKcAn5FRzV5/8N6zcRCGkcHzJiFXCQPQbIVU923CAAtzNrujuzcAn6FIjOrEr8V79hqdZOCJ7S1zh0tas42ZgoVBRVIZtU5gp1a4ibHrsbsUlWeuCCjAt9vQwLeaqputkMWoWwi4/ctZJUChSKTj2zswm4j7W+unJuv2Ng+5hRQ13oCLQI8UIB5BivQ0dERGxs7MDDAYB8D6Jp7Wjh+JbcM9KzfHxBaWO4xBEIlJ7T4HALqlSgfjQAtAvjXCKaZrMCtW7fi4uI4XO7JkyeZ7GfgfANa+KOt5S63jyOvh2gBWlhjxIy73BMmk3XO1F2TydUD8VaPXW9MWOZe3XF99oTJNEHPlCDX9bvae0PX2mtCb7RtUV6wX+T/RmdLr/0eV6eH+b5bt24lp6Qszn3w/spqbqQCA2jhTy8PDi3quvVK4vkxfzMYy90UP+xAbmF92h3rOeQzKt52okua3D2v9WDTr7BHJJ1/qI/BOB8NzB7yWvmEE8BC4Uxgmuir1Zs3bxKoIL7fRSwwgBae9KB33323u7vbuWRwaOFhChKcYkALV7S4qVOWSGUVRUU7dNizKI7zpHo1JZrabbnyTsuDKvZzcY3HRaJtStkOmfS+otpLJrSvYfX8tGX34eXdm5r4TZO0RCbbnCv99pAtvcHLYzO5tjQ17LA9eTlxUWl9rkZXIXvtNnr7DY1oXW5uoUh5WCPa24s944/NCDO2iTXYw5du7Dj/DYT9HgdURDIwpqeFZQkQvyYbD1LWEbEYpGN082XBDB/uW+h0utzcXJFIpNfrqX8d3tHCz4ZTlt8gpXPYQyzQYl0xxY8EYorQAC1c0MJ4Qio/hz2FMoJftKE8y0jMk+rVzFVeoD6lckmzbLOy9mBtLXbxB0tQyKF8sldT2DRCecR+ClO9zxThs7Fu9xzTWadiDR0u0ujxmiZHmgpttEAnezUl+Iyt26/Jdl+YuKOTiduM+MUu0xvKNCdauLVD7f4RsO0SFSQwKnaH8SWp/v5+5/BOTwvyGRvKAzbeD0PqeiHHMnUOm4dsWVNkilHJw0M+MMwHWhC6/fCHP8zJyXnkkUfefvttYo93tPCz4ZaHx2zK2O8hb2/Y77QV9j5qLs8FWrigBTpxQ7dXViSWNXUbJ7Cv5w7zpOwfiERxC98ewZeNw7ICyuUs8qu95eLPlKbu9LZUiIq2aF77jRVE2Ok9lhseFiPkX/3QIWnLddR4XNZwxa4J6M02p9xiKjvOg0i47pkCFcTfxv1hCoz29vaVK1c++uijDszwkBbqpsq0tPS5WYLi0+YaXXM2NtdMSD7qOtVSE+TtX3yhC1U2AQli0Bw2llcJ07MEGYWK4gpi8oE+LwsRiBC+uCCjtEN+bB8fQTL5BQXt2Dw1x0rJsY9kmMsFM1wOdlqDefbCJV/96ldv3rz50UcfGY3GP/3pTx9//PGf//znv/71r2NjY59++unf/va3O3fufPbZZ3//+99NJtMXX3zxj3/845///KfZbJ6YmDh16tTq1as3b958+fJlb2ihL+alJywUpJd2qIeNWxWSdGyZE6GgiVyMC/PWhSYult9wt8AJTgvqiin4ufbLjfA2Kfil+CosbXoJgmSLC9LF5AR4d3I57AdaoOj1FukhcnLWyFFRw2/QiZu9+P2HiaFD8rabKCUhIOZJuaIFZVU497SYytRtQ6/xLopO3n6tAr92hI/ZQ4eLMBhg694Z28SU3ALF3T7c1rK5AXP9jk625TVyxpdes8xVbuHWTrjCwb5d06KC+MMIV2CgKOrMDA9pQZlO0VdciK/kYTBrz9ZlHhjRTrXUhI0Wee1j8u34XAScFjVNiCXDGCtHUvGpavq8xXUKfPEPpVpAzkcbxqszOFVqTwuXC2Y4DHPWj2npGWlpacuXL7/33nuXLVu2dOnSJUuWLFq0KCMjY8GCBfPnz7/nnnvmzp07Z86cWbNmpaWlzZw5c8aMGcnJyYmJiQkJCXFxcbGxsVwuNzEx0RtaYCs4EU2uaa7MJLOrsXJEuPE8qZILTZyXM3HeY0kaHHML6pRAy3Ij/CP4lJeBjmzLND1sJZJj1vW7pn+4C2iBXdQfOirN3azUVIhEB7FLSehNnbJMpjmolJa1jEw6z5NyQQvyStRB7CKSMy1un5OvLlFiq1I7TrmymTJdaZKWKWv3yKR7L9hulZuGmjbnSndq5FsaNJT7FvhIePu1ijTRMfKqlbFTXrReptkpkx90ed9iCjv2w2o4fvIQFWEPDBRFT548SeQZfX19XtOiu5XHE5KLWAiFGbv11kGQQhTbnDtCT3IgG7iYt6lV3YYNmtbliYjZZyQtLKu3kuWxcRDPHpwrtaeF1tWCGVY8OGz4fCWK+LM4fvz4smXLEAT55S9/6RstrIvpUtqODdMuNLEABmsCcYnJeY87Wky13Ahl4gXVoMWUg2LUj0CLcBwdoU0UBbxCBfG34ZBhXLp0aWF4/aSkpCQkJCQkJrpeVdA6cJCjifW+BeVrfleH8OVRL2hhMNe0qbKLhbz60ZomhPyeaxjbWsGbhhbU3IKo1J4WLhfMoI5x1G2fadHa2rp48eLy8vJf//rXROfyjRbUtjvkFo6aUBf2IJYzcd5jidRUuYXjciNAC8roAJuggFWBDz/8MAmfV0EdMjzZpgJjYmJiLFx+uru7S0tLFy1a1NLS4nFuYVaoCzJEKlzZ3nQAACAASURBVOS8GVudIh/Jq0B4wkbFgO0Cy/S5BTauYWzALsgMjyKlBRlilUBUWWC9b+EutzA4VWpPC5cLZrgLsQ+0OHbs2IIFC7Zu3frb3/7W2q9QFPWOFpc7snlCQa2+Bm97JrJPIHS4b+GsiYvlN9wtcELSwrZiitn9ciNAC2oYYRsUwBX48MMPY+PiFuc+6G7smHo/FRhhoOjg4GB5efnSpUtfeeUVojnT08Ly1XVqoVh01AdaXMN/nDuAd7QICyXhSpRzN4A9YaLAhx9+GOcfLTgcThisC+LMCSLAQAt/OjrQwh/1fDiXGSt/UB2/O80aHtSyDtv2K2pMmO5gT9P6tebHhMm2DskkZsmhRvg4rQK0XImathaGFxgfH7fmE1RXgRZUNbzdBlp4q5if5RlHC2xi3bex9ye7W8Njigbbz4cgH3ay3znF2a4OXdJwlmt6iNkX5CwKV8Vg35QK+H+Xe0rzLD5ILy3q2vbxDlBfCTf9E5nkJazz2Pv4tFcvFuQ3K+2u2Iwgtfh66XY7PTbr6iwfrkS5C3AAaDFe0z9mfceqD3MPA31JEK5E2XUGysOv2P7b+lrputzcdbminTpspvTk7Z6D0lxsj0hJLPvhdkUNnBZTr/mxTqbcIiPWF+l9o1a207JSiNWjSxrRHo18L84LCy1crPDh3o7pWot8nVRWISL9t1qOsA2vgBE5y0bRSwutz4tbkE9ejdf0Ozz7T7kf62ro92FwZDYt9HkcXl4b8eI863NoftHRB4mmOAVoYTdwWnOL3psT6B2dfLNtOQ3RsRumc3IpOQvPdGGnqOU66n5FDcfcgjLFz7J8yPKGIXye9sjR3NyjI5gfk0MNYmylEPIHX37KeFyOLTZF0MLlCh9u7eDWiKngVxqklpkZFuuR9b+HwIgcVKAoSjMtiEHfNrtbwNeOag0jG4vJaXfazrqMXX0uJi2TtCDZgM/cFqRnFfD31mVbHpSaYgjz6hDTaZGvytuk2oq94Y6khbMa6nqh21nZ+IRwnhjJzCLeUkUzaYAWdoOm8bhI+QZ+6+IuivbViqwztPHBuvcZ22xqPAuZYkUNB1pMteYHJaEhVwqh0gKbxb1N03sNX8+DunwhmW2QFblYceRmm2iVCH+xs0xWJio6HIhXO9upx/AP0wIjolAROFqkkW9pHZUUKsoHzep6ieBFLGlQ7JJsPG92MWnZjhZ9xTnEcGnWdjVmRBotClvV3a3Z2/U1JC1cqKGuF7qblV3ThGQ3E6mJsVSMie8VSqctDLSwG+IoA7f9chpvKLHcgvJGZWtu4WZFDQdaTLXmB6VSV7TA5pa3yTdLc/f2ul/hA2uFkx1KbmHQNXVbVsy1a3FkfZgCGHmR96KLxKSksqbXph0jPC1gyS0sq3pY5idfPsGXnasb1ueJsZdvu5+0jOcW3a28iouWGum/EjVr4ZKnn36alk7PX7V6jbTK4iot4zLZXnV9ZV77kKRQJXelBmWuO0UfXHx5VXp6MUJMts/Mr0R6aPHKZmSFcHNe3jpa1PPBCBPvcmsu2RqCLaexWVm7U2q5b4G9UVm6s1ZZZr1v4W5FDZIWnqz54TTKWxygZBLG4yIOtvoT6maFD+wUZzvYaiIlMs0emaisaci6VqHFfGT+7xIYEYgKFEVnzZnzsPowbeOdO1oYxstllRKtIrsJXyLQeSK3Y25huXLV3cqjO7dITpv9/PPP09Lzi4qKlhWIaFMPuzFjGf2HRyWbJJlZKrmhrzjHUY0paEHNLbYeOKG8ahvoafEzIyf/kUceoUU9H4wwjhY+tAFOYZ0CDsCITFSgKLou/wHeAxtoGUcwI25pgS1BOHeOirww4jyR244W+MxtvkRQUcnfpaL9vgWXyx0eHqalxz799NOp9yygTT0qLYiFoTgqOTGP3V6NKWiBTZJHhC4mitP0jEBy2uxvfetbtKjngxGghQ+iwSk0KGB902rEogJF0ZaWlrjEJFrHO5q/zNLr28Nfb0hOSaGh9+Ambt26xeFwntb/nl4nGWttp+7XHA7n7l3rW6npEtJTO0ALT5WCcrQrcOvWrdjYWE6kvpSb0DMpOfmB7U8zdoSi17GUtDlf+9rXaOxIK1byl9y/nl4nGWttYVau4L77aFTPW1NAC28Vg/J0KtDU1PTQQw/RaZFtto4cORIdHbP7/DXGDlJ0ObaypGxmahq98RkcHORwOI/UtdDlJGPtPKw+zI2K+v3vf0+vgF5ZA1p4JRcUplmBU6dOVVdX02yUbeY2bNiQmDIzvIGx9rHtUVFRP//5z2kPztNPP82NipJ+6/uMHej9d+wrtd/lcrlarZZ29bwyCLTwSi4oTLMCQAtC0A0bNkRHx4TlJak93f/PfP7a2Ni4119/nebeYzFXXV3N4XD4osf8H5cZaCFzvYTD4TzzzDOW5obsf6BFyKSHilEUBVpYu8GRI0eSkpPjEpN4D2x4WH24rOm1x54/w95f6Te/d/8TyrlLl3M4nDVr1/7tb3+ztjQQG2+88ca89PTo6JiMNXlFX6spO3qKvdI99vyZR587WfDk/oWr74uKjl6QkaHX6wMhmrc2gRbeKgbl6VQAaOGgZktLy7r8B2bNmZOYlMTq3+SUlEVLljzxxBPvvfeeQxsD9/HcuXMlJSXz0tMTk5JZrV5icnL6/AVisfjChQuBk8tby0ALbxWD8nQqALSgU02wBQoEUgGgRSDVBdvTKQC0mE4hOA4KMEUBoAVTIhGZfgAtIjPu0Go2KgC0YGPUwsdnoEX4xBJaEu4KAC3CPcLMbh/QgtnxAe9AAZsCQAubFrAVfAWAFsHXHGoEBXxTAGjhm25wFj0KAC3o0RGsgAKBVwBoEXiNoQb3CgAt3GsDR0ABZikAtGBWPCLNG6BFpEUc2steBYAW7I1dOHgOtAiHKEIbIkMBoEVkxJmprQRaMDUy4Bco4KgA0MJREfgcTAWAFsFUG+oCBfxRAGjhj3pwrr8KAC38VRDOBwWCpQDQIlhKQz2uFABauFIF9oECTFQAaMHEqESOT0CLyIk1tJTtCgAt2B5BdvsPtGB3/MD7SFIAaBFJ0WZeW5988sn169czzy/wCBQABRwVAFo4KgKfg6nAiy++6PKFwxMmk+mO5fduMD2CukABUMC1AkAL17rA3uAo8OSTT548edK5rtuGnp7uJtk6zWvdPb03J5wLwB5QABQIsgJAiyALDtXZFPj888+TkpKMRqNtl91Wr0bcRhwzHhfJ99aK1jX0onY7NZdQdPL2hb0iUYVMuk7adMVkZwA+gAKgAH0KAC3o0xIseanAtm3bXF6GspixA0PRt0fw/XY7NZdQU6dMfo6AxO3XKpQX4LKVRT74HxSgVwGgBb16gjUXCly/fv2vlp/r16+///77x48fz8nJ2blzp4vStl2OYMCPOO7s3Ts/d7NMVoH9Skvkuj/azoctUAAUoFEBoAWNYoIpRwXefvvtZ555pqCgYKHlZ8GCBbm5uUqlUq/XO5Z2/OwIBvx4b21h08gktjlyNNcht+g59toI3ONwlBE+gwL0KAC0oEdHsOKsgNFoTEtLe+mll5wPebbHJS1Q4wlZ7mZl7W65fDNGC3TSqNspku6sVZaJlJ3uboF4ViGUAgVAAfcKAC3cawNH/FOgsbFx7969/tmAs0EBUIApCgAtmBKJ8PNjw4YNAwMD4dcuaBEoEJkKAC0iM+7BaPWCBQvMZnMwaoI6QAFQIPAKAC0Cr3FE1vDFF1/ExsZGZNOh0aBAeCoAtAjPuDKhVdXV1UxwA3wABUABWhQAWtAiIxhxoQCHA73LhSywCxRgqQLw98zSwLHAbaAFC4IELoICHisAtPBYKijopQJACy8Fg+KgAKMVAFowOjysdg5owerwgfOggIMCQAsHQeAjbQoALWiTEgyBAgxQAGjBgCCEqQtAizANLDQrQhUAWkRo4IPQbKBFEESGKkCBoCkAtAia1BFXEdAi4kIODQ5rBYAWYR3eoDfu2rVr1jenWmlx8uTJa9euBd0XqBAUAAXoVABoQaeaYKuvr2/FihWEDlZarFixoq+vD8QBBUABVisAtGB1+JjofFlZGZFeELQ4efJkWVkZEx0Fn0ABUMAbBYAW3qgFZT1QwJpeELSAxMIDzaAIKMACBYAWLAgS61wk0gsOhwOJBetiBw6DAu4UAFq4Uwb2+64AkV5wOBxILHwXEc4EBRimANCCYQEJF3fKyso4HA7csQiXeEI7QAEUaAGdICAK9PX1JSYmwqNQAREXjIICoVAAaBEK1QNT56uvvrpWcF98QgIHfuwViE9IWCsQnD59OjDCg1VQICIUAFqEQ5hHRkYWLV4SHRPDKygpO3r6QN/HWoMZfgkFDvR9XPYfry4rEEXHxGYsXjw8PBwOIYc2gAJBVwBoEXTJ6a7w1VdfjYqOXpL3EOBhWgWWrns4KiraOtuc7lCAPVAgnBUAWrA7un19fVFRUfc/oZx2oIQChAL3V+zmRkW988477A48eA8KBF0BoEXQJae1wjlz52WulwAJvFJg+UObZs+ZS2scwBgoEP4KAC1YHGOtVhuflOzVQAmFCQUSklKeffZZFsceXAcFgq4A0CLoktNX4fyFGWuRHVqDua5/rM5g1l4dqxn0+eb2eA1hBL89Thqk41Z5Xds+3oEhDylV096MnPeqCWPy2o5qz/ysbmqW95PGBY8r0hcsoC8UYAkUCH8FgBYsjjGXy1X99H2tYVRSqJIbzNp2Fa9+1MNx2amYPo/Dy2sbw/dbDHo2CjuZsh/uvWGYul6Y125/+jQ+eOGqvEoo6SaN7+m+bl0il8U9AFwHBYKoANAiiGLTWtXg4GBUdDRlcNcX89ITFgrSSzvUw8byKiFPjGRmSYRnx3CcCLNlSLZYkl7cuPV0q0Bcyc8V8LVUtOjz8lV5m1RbB8xW/NTomrOzBOlZBfy9ddmFrWqDWV0v5G1S8EuRTL5E2KaXIEi2uCBd3KoeNmsdK7UM+iTDRhFEmClGMnIrEcuQrTWY9x9T8fIRvlDAU+hr7OwXFLRj6MJ9kPDFQh7SYV+LEC9A0kJdL0mvwixYDWaq+2oMZu3A0MZNgvQsQYaosbjURgutwRwdHfOrX/2K1piAMVAgnBUAWrA1um+++WZsfDyFFrbcoqYJyW4msgRjqVhRPjgqKURKL2PDd01zJae0AxtGDcZSkaLcduVKn1fYqu5uzd6uryGTlb7iHAIeZm1XY4aFFvwjRqzSgY5sTiWCocW8/wgiODbuVKk9LXpaM4l6uzo24hjAjPR38EUn9uPZg/pYY/mbGI1I+8P6vJxGpaGvuLBROYybOluXeWCkpgmxFBgt33uuGncVaVfxqi7WDOMGydbhXr04rthdQCZMw0PCHDtaxMYnnD9/nq3hB79BgaArALQIuuQ0VTgFLeRV6enFCF+M/WbmVyI9lMs1lKtV1CszWgNOC+zbfWVe+xB2aau7lVdxEaeRmXLUeqWILI8VwG06VWpPC8N4dbOKnyPkqy+qr1oOnd6XaX/pjHIlCve5u5XHExIN4QuFGbv18u0S69Uk3LdRSWFqQladgiBKuyo5S0KWLxZmN70tKVRtJQ4ZzPbtNQMtaOqJYCZSFABasDXSU9CC+jV/64ETyqte0EI7PCrZJMnMUskNfcU5llG4u5VnyS0s9xUcaeFUqQUJBJ8GR+VdWFJSd7Yu20qI/g6+JRVQv0jmFhb7hM+U3KKrQ/jyKKUWh9wCuwyFJSsWg/vbmkt1WG5RfBb3ZHhUUgi5BVt7O/jNBAWAFkyIgi8+uKDF5Y5snlBQq68Zxm8SIPsEQqGgadR6H8KaBxAZg/13bcro393K42C3zWvONmbyJYKKSv4ulfW+hWU0p5QneOBYqT0tsKMSfsU+gVCysctyyGBWNykyxaoCRJJRcW7/MHYlymKfJBzmQz6SV4HwhI2KAbPWaqe4IO+Y0do0db2Etxu7UaFuUvCEigJEQt7nGOgTFgsyEVW2qC7P/r4F5Ba+dDs4J4IVAFqwNfgUWtgGXwID8K8nCgAt2Nr1we8QKQC0CJHwflcLtPAECVOUAVr43QfBQGQpALRga7yBFlOQwJNDQAu2dn3wO0QKAC1CJLzf1QItPEHCFGWAFn73QTAQWQoALdga72DT4urFgvxm5TQzq83a4fGagfEpxmjaDvldEdCCrV0f/A6RAkCLEAnvd7XBpoVhvKbfAwx0t/Kq9LQhYQo4+V0R0MLvPggGIksBoAVb4+07LfAlOrDFMAoVxRXkE6vYghlZgvQcoWC3ihjunfYQj8xisxbIRURy98nxZUIoS3qMIpt4CXP46Vl12LpVxC++9kamGOFlVeIT62yP3pLPy7areBX7srMqkR5s9ZGCTYLsplFixQ7srHwFvlKIPi8LEYgQPrnQiKuKrDV6tgG0YGvXB79DpADQIkTC+12tz7SoaUIsiw+OlSOp2PyG/g5+Ib7Wk8Fcc0yRUKV3sYec7G1bRETbrsrYO6R1WNLD6Su/bX7cQJ+kXl9jmTSuxVeFwmpvVyUg5/DFSPR5aYpyfDURxW6hUIfzZrivuLi52qDPW0xOFVTXCwXHxrVOFXmb0AAt/O6DYCCyFABasDXePtOCOinP9u3eOr+aGIUpC4RYxmVrboGvd2swW/bbL+nhOIiPSoot5cmv/K5yC7J266FRSSGfh69cwhdLeDl1cgpjyKV2HSuypDKeJRZaA6z8wdaeD36HSgGgRaiU97den2lhW5jPMLa1gkfmFpbV/WraVGlEbuGwx5ZbWEZ/Yrx2WNLDaRC3ZQmDZG5RkEMuFKhUC4jcwpLrWGlhtp01PISoL6qBFv72FzgfFPBXAaCFvwqG6nyfaYEtnlFakCFWCUSVBZb7FuqmyoxcJA9BshXkfQunPW5yC+tSHMSSHsN9wpwCfgXlDUUDfUKhRKBQ8XORjTpsZVy1FkkvVhTIKrOL3dJCi50l5Feo+PnEous2kJC5hXNFHmcVxDUruBIVqq4L9bJUAaAFSwOH+k4LF6Mq5Xknp+TA2/sBbCkPtGBr1we/Q6QA0CJEwvtdLa20GJNXCbMP6Kvf1G/cJCw47cGTsi6Q4/Wdg9ByBWjhdx8EA5GlANCCrfGmlRZmrWF8f5d+68t65eWIQAXc5WZrvwe/Q6cA0CJ02vtXM920YFlm4H9eArmFfx0Qzo44BYAWbA05rbQYkYgU5f10AOPqWI3t7a1eGRyT12L3xqu1iOAY8ZpYyum+m6UYsb96BrRga9cHv0OkANAiRML7XS2ttDDX9Y/V2Q+mPn55p07U8M6g5QV/g2M11lexWi34bhZo4XdXAwOgAK4A0IKtHYFWWhAjteOqHnUvKvhHsNejag1jiBgpvWyu0TVnYy++FpJvpmtXpYsVfBHCzxXwtaNag76Yl56wUJBe2qEeNm5VSNKzBOlZxPv7sPfiZVft42XVbX1RwTswgpsdL5dhZvFtkhbkhMHuDkG+hC8uyCjtUFPNWvnh9wbkFmzt+uB3iBQAWoRIeL+rDQwtLGM3sarHsD4vv7naYNZePsGXnaszUN6SfbYu88CItl2VtqvPMtYrygexZTyIqXY1zZWZ5AztsXJEuPE8RgtspRCDWUsu5mE164IWaq0kuxm7HqVsapb328zidblNF7w6CrTwuw+CgchSAGjB1nhfvnw5OibWq/HRfWFrbmE/T9tgVuyS4AM9UnwWX+qDJ+QTC3IIhRm79VY2aA1mckERCy3k24X4GoLYyE6kC2TSgOcE1QckxWfN6nrcLJkl2OcWV0eQKiSjEBG+PIpdIrOYdd8ErxESHRv79ttvszX84DcoEHQFgBZBl5ymCicnJzkcTs2v/krHAOqWFtrzzZm7WzcW1ymwMZ2SW3R1CF8epQ7iDrSgri9izS2wdT4INmDJSmPxJjxxcUWLum69ErtCNa7Yha9cSzctvjH4Nw6HMzExQVM0wAwoEP4KAC1YHOPUWbMe3FkbWFoYjKXiVMttBnPN2cbMfCSvAuEJGxUDdl/5SVpc7sjmCQW1+hp8fZFMZJ9AaLtvYaOFwVgq4lhuihAIsc8tujsEQiRPocgUNiuHzVqrWRItFur4+rH4qbqZaWksjj24DgoEXQGgRdAlp69ChUIxY849dNDC38HXex+MpWL8Poevw733Ndq1cebc9B07dtAXCrAECoS/AkALdsc4PiFhXdUeP4fOEJx+vjmTvD1uN4gHx5N8uSY+PoHdgQfvQYGgKwC0CLrktFbY0tLC4XCkh9uCM87SVYvltkQIUCFtPMHhcl944QVa4wDGQIHwVwBowfoYq1QqDoeTL9fQNZSHsZ0Hvvo0h8utrq5mfdShAaBA0BUAWgRd8gBU+MILL8TFJ8ycN3999aFn3zWF8XDvW9OevWZ6SKWdOW9+XHz8d7/73QBEAEyCAuGvANAifGL81a9+dcbMVA6HExMXF5eYFPLfmLj4kPsQl5gUExfH4XBmzEyVy+XhE2xoCSgQdAWAFkGXPMAVfv75593d3a8z4IfD4TDAi9e7u7tNJlOAVQfzoED4KwC0CP8Yh6qFHA70rlBpD/WCAvQrAH/P9GsKFgkFgBbQE0CBcFIAaBFO0WRWW4AWzIoHeAMK+KcA0MI//eBs9woALdxrA0dAAfYpALRgX8zY4jHQgi2RAj9BAU8UAFp4ohKU8UUBoIUvqsE5oABTFQBaMDUy7PcLaMH+GEILQAGbAkALmxawRa8CQAt69QyctU8//XTnzp3LMpenzJiZmJTE6t/UtFlrctZqtdrAyRWxloEWERv6gDccaBFwiemoYMOGDRwOJ23+opxH5ZJnWx97/gyrf0UHmlY8vDlpZlpMbOzu3bvpUAhskAoALaArBEoBoEWglKXJ7vvvvz8jNXXWwiXyUz/zbQEuJp+18ZlvxycmrVqdRZNaYAYFWkAnCJQCQItAKUuH3fHx8cSkJN4DG5g84vvv26wFi5avXEmHYGADaAF9IGAKAC0CJi0NhpdlLl+wSuD/cMx8C4kzZm7dupUGySLeBOQWEd8FAiYA0CJg0vpr+OWXX46OjWX+QE+Lh2VHT3Ojou7eveuvahF/PtAi4rtAwAQAWgRMWn8NL112L38j4mIsvjpWM2h5oeHgWM1Vy7bHr0+va9vHOzDkwrJrCyMSkaK83+taPLZPWp41f9H27dv9VS3izwdaRHwXCJgAQIuASeuvYS6Xu+vcr12Mue0qXv0osV9dL8xr934cp/LGNSHsbNb1j9V5UMyFq96cta5qT/r8Bf6qFvHnAy0ivgsETACgRcCk9cvwlStXoqKjXY+/zrTo7hDkS/jigozSDrXBrB0Y2rhJkClGePkKpNusNejz8lUFmwTZTSRjtKSFUQQRZoqRjNxKvBhJiBpdc3aWID2rgL+3LruwVW0YlRSq5IaRjcV1imG8TGddxq4+F7VkIQIRwhcXpItb1URJnBZOBu1QZG2j/JQ+JibGL9XgZBTuckMnCJgCQIuASeuXYZ1OF5eYZB1J7TacaKHWSrKbx7QGs7KpWd5vVuwWCnX4iDzcV1zcXG3Q56UpygcoYzRhoac1s7SjxmDWdnVsbMdOx3/7inNUW4nCXY0ZNlqY1fUSwYvjWoNZsUuy8byrWhaTOFHXCwXHsJJuDFI8oSQf+y7d4nK5fqkGJwMtoA8ETgGgReC09cfy66+/7jkttFdHkCokoxARvjxah6UCfJ4Y4WO/El5Ondygz8MGfcoYTfJmvLpZxc8R8tUX1dabH92tvIqLloGeOJHILczayyf4snN1w/o88Yn9U9dC4ZnWhUGKJxSv9l36CGjhT58hzoUrUf5rCBZcKHD37t1Zs2a5OAC7Qq3AVLQ435y5q48Y0JVqYXGnua5br7xs1hrGFbsqJd3Ub/1DiPqi2h0tBkflXUatwVx3ti7bciNEa+grzrFccepu5VFyC61hvFxWKdEqspuwRISSwTjVQqWFC4NAiwB2L6BFAMWNZNPvvPPOQw89FMkKMLbtU9HCMKZQS9KLFXliIU+hxy4ldXcIhEieQpEpbFYOm7UDfUKhkF+h4udLhGfHsPsWLnOL4VEEkfAr9gmEko1dthG85mxjJl8iqKjk71JR7lvgBc7WzZ2jKieeyJqiFjtamJ0M2uqyJDHYHsgtaOmNQAtaZAQjjgps3779hRdecNwLnxmgwJS0cD3aUkdef7ZtT0ANX3TEDOXCkT9VuDwXaEFLvwNa0CIjGLFT4OWXX87Jyfm///s/u73wgRkKhJAW6noJb3uH8s0hZLswU2t5jCqQnCDgAbSgpesBLWiRkR1G/vGPf7z//vvDgfn58Y9/PDg42N7evnHjxsLCwj/84Q/sECXyvAwhLbA7Gd19W1++qOi2PtcU2GwGaEFjBwda0Cgmc029/fbbUqmUy+Xy+fwjR47kBeBnwYIFDz/8sFKp/NGPfsRcISLMs/7+fucWh5YWLq8UBXon5BbO3cCHPUALH0Rj2SmvvPLKwoULf/CDH/z73/9mmevgrn8KlJWV5efnd3V1Uc0ALahqwLbnCgAtPNeKlSWHh4dnzpz5+9//npXeg9N+K3Dx4sWHHnrogQcesDIDaOG3qBFqAGgR5oH/+te/3tzcHOaNhOZNp8DFixfXr19PMIMeWtivCEJZVIp8phZfk0PCFwvTN+FrdQwby6uEPDGSmSUswGd3WwvwkA5sMQ97g3WdjZn5CL9YkLm3z/+FpOBK1HQdxKPjQAuPZGJvoVWrVt24cYO9/oPnPihgNpvPnDmjUqkQBCmj/OTn58+cOXPevHlu53J7/HiSw4ogTrSwTcSrOdsqOT1W04Twj2Dz9bTDo+V7z1Ub+ooLG7EJHAaz9mxd5oERB4Py7QX4EiPGrQc6qj32yt39j32XPuJwOBQlQry5cuXKrVu3NjQ0uLyx5EPEg3MK0CI4OoemlsnJyfj4+NDUDbWGSAGdTjdv3rwnnnji+9///ltvLGUo0AAAIABJREFUvdVt+Tl27NiDDz44b968DRs2+E8L+xVBzI606GnNrNJTx275dokEW4XQ8tvdyuMJ8RVEEL5QmLFb72BQ26/fKBZmiFSlndZlpiznWo14vEHkFhYlQv//kSNH3njjjcOHD2dnZz/22GOfffZZiDqLd9UCLbzTi3Wly8rKWOczOOyzAj09PXPnzv3Vr35FtTA4OFheXr506dJXXnkFRVFarkQ5rAhizQy0Ax34JG1b6lDXSeYWxOqEWoNTbtHVgS1CZb/EyP4uvXrQrB02lopVco+pYKOR/SlMvhJ1+PBhtqx6ALSg/lmF4TYs7ReGQXXfpMLCwvPnz1uPO3CC2E8LLZxWBNEX5BbwK1TZMgRfAApfk0OoKKhAMsTNygHsAhS5FkhxQd4x7JIUtmhHPpJXgfCEjYoBxyVGsKP46ZlV5/bbD/3ukDDFfibTAkXRxx9//Pvf/741aozdAFowNjT0OAa0oEdHNli5fv360qVLqZ42NDQQ+QR1Jz208HsEn2Jwp/0Qw2nxs5/97Ctf+Qo1RszcBlowMy60eQW0oE1Kxhvq6uqSyWTTugm0mFaiIBcwmUxz584NcqU+VAe08EE0Np0CtGBTtPzz9dlnnwVauMxLGJ5boCjKitdvAC38+wNl/NlAC8aHiDYHT506VV1dPa05yC2mlSj4BVjxdwq0CH7HCGqNrOiFQVUkfCsLIS3qBsbq8MkT1VpEcGxMi70nA8msH6pr28c7MOTy+77jzqtjNfjLLbw4xeN7J8zPLVjxdwq0CN/BA28ZK3phmMcgWM0LIS3kVUJyOsXgWM1Vs7anNZN4qaqFAY5scB7ora858vwUZyNu9gAtaOmDQAtaZGSuEaAFc2NDt2eBokW7Kl2s4IsQfq6AT7yUYmBIggjTswTpWfgb9E7XzZ2TmsYXZDeN4tP0RpFNvIQ5/PTdei3BANfLfgjSswr4e+vw+Rn6Yl56wkJBemmH2oKN/W37MrEqBOTSIM5uuGGDM5mAFrT0NaAFLTIy1wjQgrmxoduzwNEijXxZ96ikUFE+aFaqC/La8CnWw0PCfGyPNbcgJ3V3t/KIudz40O9i2Y8c1dYBfG52V2MG8a5WCyRIwPR3ZBfjC0wZzDXHFLwDI9p2lYMbzlRwtwdoQUtfA1rQIiNzjQAtmBsbuj3zkBbnz5+PjU9wN7C62G8dxw0EFUYlxaqtxBJP5J5paOFi2Q/iOhWWHFje7G2thdg4vY9Xb3m5HsEeawFLpS5cdZNt7On+gOEPHbHi7xRoQfefLMPssaIXMkwztrrjIS0++ugjLpfr+VBLftnHB2Iih1DsLig+i2cGHucWjst+5NQpCN50txJzv221EFTo7+CLThCzuK25hZUf1lTGw1aUHT2dkJjI5Liy4u8UaMHkLkSDb6zohTS0E0ygqIe0QFE0PiFBerjNw6HWNo5bv9QP9AmLsXU++Pn4fQuDeX9z5dx8xcb2MZdXolwv+8GXCCoq+btU+H0Ls/ZyRzZPKKjV11hyCHVTZUaxogCRWO9b+EyL5esl2WvWMLmPsOLvFGjB5C5Eg2+s6IU0tBNF29vb16xdG5+QwGHzT0xsLO/ezIaGBh808ZwWIpHonszVntLCzeUdFp0eG5/Q0tLig6RBO4UVf6dAi6D1h9BUxIpe6Kc0Q0NDCzIyomNj7y3a+NjzZw70f8KigYzq6jcG/2fr8QtZmyoSkmckz5jh7UpzntOCuBj16HMnqbWH6/bqR2SzZs/xs48F+nRW/J0CLQLdDUJg/9q1aydPniQqtvbCkydPXrt2LQTeBLjK733ve1FRUbwHNoTZYCd4XMHhcJRKpef6eU4LFEV37NgRl5Co0d8IM90cmiOua+FwOOfOnfNcxpCUtP6dhqR2DysFWngoFJuK9fX1rVixgvDY2gtXrFjR19dHazMmTHdM5O9dV4av61oumVwdoG1fT08Pl8tdV7XHYYwIj49lR09zuVH19fUe6uUVLVAULXrwwfik5IpXfhIecjm34sFd3+BwOPv37/dQwBAWs/6dhtCHaasGWkwrESsLlJWVEekF0QtPnjwZgNci9WrWaV7r7unp7um9OeFCpksa0XGji/307UqbNXtlSZnzMBE2e4Sab0VFRY2NjXmimbe0IN6swOFwlq57WPkjz9bnYMk9jMebfzCXtyI6JuY//uM/PJEu5GWAFiEPQeQ6YE0viF4YgMQCRdFejbjNRoPJ2xf2inLX5RaJlQ17RJpLKErSwqjbKZJWyIrWy3U3UdQ00rItV1ohE5UosY9+/DzzzDOJKTPDBgzuGpK+fPX69es90ckHWvz/Gcbbb7+9anUWh8uNT0qevYh3zzI+q3/T5i+KiYuLjokpKSm5e9dlzuuJlsEuA7QItuJQH1UBIr3gcDiBSSxwWpC5xchtFDV1yiyZhOnCzjQbLf7YJt2hwy5IGbALU0OHRU3E3ZPJoYbNLTeoHnu5Pfeee+6v2O1ukA2b/U+0dkVFR3uijW+0sFpub29XqVTbWf6zf/9+6tsDra1j+AbQguEBCnP3iPSCw+EEJrHAaVHSNILfuphA0d69ojZLrmA8Ts0tJm6c08gKRbKjPcYJY5t4tahCJsN+paLChl4/gsDhcPZduhU2VJiiIbFx8Z7cp/WTFn6EAk71VwGghb8Kwvl+KlBWVsbhcAJwx4Lwy+5KlKlTJjt7Gz9g6tmzzJZb3DX2GrD9E1ca5MeNlNxiRHe0x3Yhy8umvv3229GxsVOMsOF0aNaCxXv37p1WIaDFtBIxtgDQgrGhiRTH+vr6EhIS6H4UyqqeHS3QSaNuR1FRhUa5RV5LvW8xadTtlMr21CrLpC0GFDUNNZWJZHs0shJp0xXfn5iKqFf63LOMv337dqvu7jaAFu6UYf5+oAXzYxTmHn7yySfx8Qmz5jB9apIPYQBaOIsGtHDWhC17gBZsiVR4+vnJJ5+kzJi5aG3B3CWZCzMWhVkjgRbOAQVaOGvClj1Ai+kiNWEy4U+4TdwxuXpcf7rTieN3SSPYJ4tBz870p9SNti3KC3ccLUzdkBsnZMo3fL/24ljZlJ+tqCAu34cfMLyiRV0/+R5QrcFsfSeo5zc2rO/+xOz4OuHA8gpSfOlWL43AlagpO3s4HARaTBdFy/P4bWKNz8/GGI+LOOI24yReV+Cng1mb5AoMxmkactfkBxWtNU+/4YCKsASGN7QYlRRyfF6+FFOPfPfnqKRQJfdyoLcxiXgFqU+nAy2m7/QsLwG0mC6A+OBu7JQvmzt/9brchj7UdK1Fvk4qqxCJdupwAPRq1smUW2SyiqKiHbreN2plO2XS+4pqKetJGI+L5Hs1cmLOsIUWt9/QiNbl5haKlIc1or292Dwy93acKiXddtg/dFhU2zeBTg41lDWNTJJgmPhNk7REJtucK/320O9sDZkY+rZUVCGT3idt+o0ta7I+V5pboZRtkcnW58pO+PxMkFttXaKCGLPmLLk3bC5JeUmLyryqSuLF0eSrEQaGNm4SZIoRXr4C6TbXNCGCY+Nag1ldL0zb3YfJ1a7iHzGSYz2+hra6qTItLX1ulqD4tLlG15ydJeGLheRi2gZ9XhYiECF8cUFGaYf82D4+gmTyCwra8RfM4YSwLOXdIciXEMXUHpMDaOG2u4fLAaDFdJF0zC2GGsRNI0SWcKVBeuwGNsovbxjC94wczc09OoJZnMSLWWzjQ7Cp9xk59rA/YfCOTmbJNkxvKNMIWri141wpYdpp/93e2hJNyyFpw29QFCVp0ftMET7X7HbPMd0Ny04U7a0txBtyu6el0zb/zEqLZYeG8DqMbWLlBVpnm06BijADhpe0UMkH9AWl2Js7Le/zEQp1xPt8+oqLm6v7O7KxN4OOIVUKAdKoNJgVuxGCLgQ58NTEmlv0FRc2KomX+Zytyzwwgr0AbjH5eh+lWpCuxlfRGMaLWZBA0EKtlRDvBVI2Ncv7Pb0q5SEtvve973nyoK3lTwf+Z5ACQIvpguFAi5ttolUifN6WTFYmKjqM5wSWtSXIoRYzaXfBh9xv6tFsazPq8YWJLBkGVvZmG5lbuLPjolLcbVf7TZ0yzu4ePFmw+HCnt6VCVLRF89pvTFTHTH0tMnGRbO9rQ5R7G1ZaWOY8281om06s6Y9PiwqWAsPl0rle08JgrmlTZdePbq0SSrpHJYV8nhjhY78SXk6d3GAsLa1T9HcIdvcp9yok3UNCpNX23Z98P4+FFt2tPJ4QPxfhC4UZu/W214Xi2UleO4EBS3lqbnF1BKlCMgoR4cujnt8C8ZAWarW6tbV1+o4CJZinANBiupg40AKlfJ036Jq6jdSViKahBYqa9Br5ZhE2EN/Ryba8Rs4T02uWEbmFO1q4qJRw28mZyZGmbQ1Ne6RNBhuxbht6jXdRdPL2axWaXhvGbo/0GTGo3H5NhtVO/gSUFh6igo3A2LZt26OPPtrf328REvvfB1poDWNbqyozC4WSbrNitzW3GELUF9XYKK8o3qUq7jRruxrzdtcJsIzB8t3fgRYGSm7R1SF8edRzWtR165WXzVrDuGIXeWXMVou1OqcND2mxZMmS9957j6oSbLNFAaDFdJGyJAFDR4uKtmh011HTFew2gGaPTFTWNIQ9PWSb/zUtLVAUm0JMfG03dsqL1ss0O2Xyg5b7Fm5p4Vwp6baDMyPfxq9BmS4oN7cZLfctsDJlyto9MuneC7dR1NIQ09BRqXRnraZCqrlIYAuzGThaeIUKNgKjvb195cqVVGb4RAuzduBi3mKMFtqBPqFQSH1XqLa7NXPOPjl2famveLFA2GVBBX4Pg7hJrlAXZIhUyHlzzdnGzHwkrwLhCRsVA2bPaaHt7hAIkTyFIlPYTF7LcmKDMz88oUVDQ0NFRcV0f3JwnKEKAC0YGpgwc8sHVLARGCj+LlUrM7yhBWXc92Bodh6sQ75naloMDg7K5fKioqLx8fEw69uR0xygReTEOmQtxWZrJyQsWlvg24g2Z/G9s+fMRVH0rbfeqmbJz0MPPTRz5sxFixbFJSb51mrWnTV3SWZiYuJCp5977rknKioqNzf3O9/5Tsi6IFRMhwJACzpUBBtTKvDd736Xw+E8Ut/i2wiYv03N5XK7u7uHh4dPseGnqalpw4YNsbGxeXl5EUWL8vLyvzr9/Pa3v/3HP/4xZQeBg+xQAGjBsDhRJse5nlYdvKngdCqzf/9+DpfrAzDyt6k5XO7x48fp9CZgtm7duqVWqxMSErRa7WeffRb6K1HklL1pLnNVe/OkrDvkT30lKmCSg+HgKQC0CJ7WntREuU+OohRy2M613HW37WHJlg/AYBEqHDhBxCT0tCAflJqGFuRkQP/ulwAtWPKH6LubQAvftQvEmVRakNs3dcoSKTFR3Ij2Nqyan8bLzd2ho3+CdSDaY2+TBEadR5ekWIQKFEUPHDhA5BPUFtNCC+uU7PRN2MQ9db0wu2ofL6tObjDvP6bi5SN8oSBT3VdjMGvxud/pWYIMUWNxqVDSrS/mpScsFKSXdqinLzwNUdylFNb9QAtq6MNyG2jBrLA608J4Qio/hz2oO9LZ0nvHMhWcWV574Y2HwGAXKlAU/eyzz5xVoIMWfcU55ATsmrOtktNj6nphxl58GnZ/B7+0A4OEwbz/CCJ4cVyxuyCvDV/GY3hImIM/g2vNLTwpDLmFcwhhD0UBoAVFDAZsOtMCnbih2ysrEsuauvHJdKy9EmVVlwCG2H2GwTpUWJvmsEEDLXpaM7HVPmxf/MmlnPAJFsnYMlD4ZO9iYXbT25JC1VZiqQ8DuXaI1kqLdtX0hSm1UGv0cBtyC4foh99HoAWzYupMi4mbvSP4O0CHDlGWmWKW1157MwUwwgYVXs7ltvHAfnS2Tcmu6yRzC3LRDmq60NZcqsNyi+KzuJ3hUQk+G9xGC08KAy287siRdQLQglnxNh4XFW2rrT1Y23LJRJLjpk5ZJtMcVErLWrDVDG/r5KtEytbeIL2DImDyuARGOKGCJlrgU7KFioIKJEPcrBzA7ltYlngyq5sUPKGiAJGQq8wO9AmLBZmIKltUl4fdtzBrL3dk84SCWn2NwYPCQIuA9fbwMAy0CI84srIVDsAIM1TQRQv7VMNdChL6/XAlipV/hN44DbTwRi0oS7cCVmAQqHjllVforiGU9mi4b+Hf9/1gkgZoEcquFpS6gRZBkRkqca8ABgz8J8xQAbmF+5jDEVYqALRgZdjCzOn9+/eHHypQFO3u7o6Jiw/mF/wQ1jV7EU+lUoVZz4TmUBUAWlDVgG1QgE4FxsfHORzOs+/dDeEgHrSq45OS29vb6ZQPbDFMAaAFwwIC7oSXAikzZj6855tBG7JDVZHyR0McLje8QgetcVQAaOGoCHwGBWhUoKqqKjV9YagG8aDVu3Tdw6tWZ9GoG5hioAJACwYGJaJd+uCDD37yk5+EkwSxcXEFiv1BG7iDX1HFKz/hcDhvv/12OEUN2uKsANDCWRPYE0oFzp07J5fLQ+kB3XU///zzXC637D9eDf44HoQaNfob8UnJjz/+ON2ygT3GKQC0YFxIItyh8KMFiqK7du3icrnhl2E8+tzJuITEogcfjPBOGyHNB1pESKBZ08ywpAWKos8//3xsXFxq+sKH93wzDJ6Skh5uuydzNZfL3bFjB2v6FjjqnwJAC//0g7PpViBcaUHoVFVVlTJjJofDiYmLj0tMYuNvbHwCl8uNT0gQiUQfffQR3fEHe8xVAGjB3NhEpmfhTQsipuPj493d3a+z8+f8+fMAicj82wRaRGbcmdvqSKAFc9UHz0AB9woALdxrA0dCoQDQIhSqQ52gwPQKAC2m1whKBFMBoEUw1Ya6QAHPFQBaeK4VlAyGAkCLYKgMdYAC3isAtPBeMzgjkAoALQKpLtgGBXxXAGjhu3ZwZiAUAFoEQlWwCQr4rwDQwn8NwQKdCgAt6FQTbIEC9CkAtKBPS7BEhwJACzpUBBugAP0KAC3o1xQs+qMA0MIf9eBcUCBwCgAtAqctWPZFAaCFL6rBOaBA4BUAWgReY6jBGwWAFt6oBWVBgeApALQIntZQkycKAC08UQnKgALBVwBoEXzNocapFABaTKUOHAMFQqcA0CJ02kPNrhQAWrhSBfaBAqFXAGgR+hiAB1QFgBZUNWAbFGCOAkAL5sQCPMEUAFpAPwAFmKkA0IKZcYlcr4AWkRt7aDmzFQBaMDs+jPJuwmS6Y/2dCJBrQIsACQtmQQE/FQBa+ClgJJ1+e6Snu6dpS67mdE9PnzFAuABaRFKXgraySQGgBZuixQRfe/eK2m4SjvRqSjS123Llnb9qE2t6iX2XNKLjRhRFb7+hEZXIZGW50qNDJm/8Blp4oxaUBQWCpwDQInhah0dNdrSYq7yAocDoSIs7OtkOHQGJ22dlyote5CFAi/DoJ9CK8FMAaBF+MQ1si+xoIW7D8ghnWlzSzF8nlVXIsN/NInknXsozv4AWnukEpUCBYChw5syZ5557jqjJSovnnnvuzJkzwaje+zo43p8CZwRKAde02CwnUgnTOTl2JYqaW+hbXrsGuUWgwgF2QYGAKjA6Opqamnr37l0URQla3L17NzU1dXR0NKD1+mwcaOGzdPSf6IoWqOlSbdF6mWaPXFkhIu5bGDuVojJl7U6paKfOOOmFG5BbeCEWFAUFAq+AUqkk0guCFs8995xSqQx8tT7WALTwUTg2nga0YGPUwOcwVsCaXnA4HIYnFlgCFMaRgKY5KAC0cBAEPoICIVeASC84HA7DEwugRci7SlAdAFoEVW6oDBTwQAEiveBwOEy+Y0G0A3ILD+IZLkWotLh161a4NAvaAQqwWwGlUhkdHc3kOxaEvkALdvczT7wvKSl5/fXXqasK3r59OyYm5uOPP/bkdCgDCoACAVXg2rVrK1euvHbtWkBr8d840MJ/DZlu4a233srNzaXS4uDBg/v372e63+AfKBC+CoyNjbW3t1dVVWVlZaWmpsbFxaWlpa1Zs+arX/3qq6+++tlnnzGw6UALBgaFfpeI9IK4EgWJBf36gkVQwGMFPvjggx07diQkJOzYseOHP/zhBx988Pnnn3/55Zd///vf33///TNnzmzbti0qKuqpp576wx/+4LHVYBQEWgRD5ZDXQaQXBC0gsQh5OMCBiFWgsbExOTm5ubn5n//85xQi/P3vfz9y5Eh0dPR3vvOdKYoF+RDQIsiCh6y6kpIStVotk8ngjkXIYgAVR7ACX375JYIgjz/++J///GcPZfjwww8lEsm2bds8LB/oYkCLQCvMFPtvvfUWj8dbvXo13LFgSkjAj0hSYOPGjQcOHHBucX9//6lTp1paWk6fPj0wMOBcYPfu3Y899pjz/uDvAVoEX/OQ1SgQCLhcLjwKFbIAQMWRqsCOHTu+/vWvU1v/8ccfK5XK+Pj4tLS05OTkuLi45OTktLS0pKSkp59++m9/+xu18I4dO/bs2UPdE5JtoIVfsh89elQkEq3Oyl65ahXzfzMWLZo7bx7z/Zzaw7UCgUwm0+l0fkUOTgYFaFXg2rVrfX19Lk2ePn26uLiYeujMmTMxMTHR0dEcVz9xcXGJiYnnzp2znvLvf/977dq1P/rRj6x7QrIBtPBR9pKSEm5UVNLMtMWCwqxNFWtKq+A3OArwRY+lL8+KiY1LSk6pqanxMX5wGihAqwInT55csWJFWVmZAzO+/PLL+fPnDw4OWmtraWmZMWOGK0zY7UtOTm5vb7ee9Ytf/GLFihXWjyHZAFp4LfuPf/zjhITEOYuXVbzyE63BDL+hUuDBXd+IS0hcwed7HUI4ARQIjALOzHjxxRe3b99ure2//uu/kpOT7bDg/kN8fHxvL/nmTBRFH3vssdOnT1tNBX8DaOGd5ufPn+dGRWVv3hqqIRLqdVBgzuJ7F2RkeBdFKB0WCpjNZma2g8qM++6775e//KXVz4ULF7qng4sj1Hyiu7v74YcftpoK/gbQwjvNE5OSsjZVOAxY8DG0CqSmLyx68EHvAgml2anAF198cfTo0cLCwpkzZ7oYXBm2KyEhYfHixValz5w5k5qa6pWPaWlp58+ft1pITU29ffu29WOQN4AWXgj+yCOPzFq4JLQjI9TurMDun1zjcrlvvvmmF7GEoixU4De/+c2SJUtUKtWVK1cmJrx4a2SQ22rNLQ4dOkSdLVFcXOwVKojCpaWlVv+lUulPf/pT68cgbwAtvBA8Kjr68e90Oo9WsCfkCixd9/CanLVexBKKsk2Bf/3rX8uXL+/s7GSy41ZOEPe6v/nNb1rfvI2iaGJiog+0mDNnjrXJNTU1L7zwgvVjkDeAFp4K/tJLLyUkpYR8WAQHXCpQdeK/oqKjPY0llGOhAq+88opcLmes4w6cIPz8+te/bn2u6fPPP4+Pj/eBFsRLWAmD3/nOd+rr60MlAtDCU+Ufe+yxBasELocq2MkEBaKiot99911Pwwnl2KZAaWlpCC/CTKuWy/kW1dXVp06dIs4dHx9PSEjwgRZcLvd///d/CSPHjh07ePDgtM4EqADQwlNh1+U/sPyhTUwYFsEHlwrEJyYx/DKFp10NyrlSYMWKFX/84x9dHWHuvrq6uubmZqt/MTExPtBixowZVgvPPvvs888/b/0Y5A2ghaeC35+Xt0IodTlOwU4mKBCflNzR0eFpOKEc2xQ4cuTIX//6V3Z5ferUqV27dll9zsnJ8YEW69evt1p44oknurq6rB+DvAG08FRwB1rU9Y/VkVPzxmv6x30YLqu1iODYmA8n+nlK3cBY3fC0kwpHkFp9zdRzD69eLMhvVhrMVoM17c3I+Wktm7WGMXltR/WUxuva9vEODHnVUqCFp12ZneUWLlzIOlq899572dnZVr1feOGFlJQUr4CRmppqvZaFouiiRYtu3rxpNRjkDaCFp4Lb02JUUqiSk+OdPq+wVT3l2Od61Bscq7nqydhKcxl5lVDSPa1NTxpFYtJqUF0vzGuf1rJZa6Cq56b81bGaQTeH3EgNtPC0K7OzHBtpgaLo0qVLP/jgA0Lyzz//3NtbF7Nmzfq///s/4vRf//rXOTk5IYwe0MJT8aelRV1nY2Y+wi8WZO7tqzOY9x9T8fIRvlCQqe7DvqS3q3gV+7KzKpEechAkx9buDkG+hC8uyCjtsCEHK1yXVyxMzxJg+4ftTq/RtQryBelZgnRho2LArDXo87IQgQghjMiP7eMjSCa/oKB9DB+XK4v3IrwcQTpfIjw7pj1dN3dOahpfkN00qh0Y2rhJkClGePkKBOdHja45O0uQnlXA31uXbUPgGCJWlGNj96ikkFfcifkvr0JKL+NEoRhU1wt5mxT8UmvtluF+2FheJeSJkcwsocUrYbYMyRZL0nP3ybEmmPe37cvEqhbwEEt760ex/RYZeQos18E9lPDFQrIYhRxAC0+7MjvLsZQWhw4deuaZZ6ySt7W1paWleZhepKam/uAHP7Ce+9RTT1Hvglj3B20DaOGp1NPSQr69QKgzaw3GrQc6qvs7+KUdxJWc/UcQwYvj2nZVAnKOem2HoIVaK8luxq5HKZua5f2W4bVdxRGd2I9fL6o5puAdGKGcPiTMVW3FR1htVyNPdq7OoM9bXKf4/9o7F+gmyjTupxRKb0AVsEJhDVYINECo6ZWsTJsaA61lNCVtyalmsbaRFKgbtNX0K0UMW6yl3krLIrYubBFE6rErUbGXFaUeoDbKWryAcdXd6qfbU3fZbM8e1pPvm5lMOknadJJOMpn04eQcpjPv9f/MvL953nfmGTxxsVYUq8UncPq6JWk1xfj4nnoInyjr60WSsUHf7gqoSxC8wRZ9X7dEUltq6pasGi05bpQWFp0hH3MaelrFqFq0vVdv6pbIGrQmm/9hL1BbiQh2mzFHqs8oXlVTTA7lOgNK7h/I236sFGsVmtOJd7ZZE7e9V9/TKpQ0YFA0Wez95VcO6HtaBdKmcrwcbV1N3utmvcAFAAAgAElEQVR4p4hptJaK+If7qU4b0ILuqczNdBylxbfffhsSEkJdn9+yZQudN7pjYmKo38O4dOnSrFmzfv75ZxatB7SgK/6EtND3GLNkSJxUk3NkUN+siUqQC2Qo9pMg2I18swYb/sgBVG+y2HyL8/1oIRqXhiLPDpALIbgnYU/c0cAvNI5mP90Qr2wnyyHG69FZI8pcEDHb4zDnQwzr5OA+IE8T8IkWyuT8VRWqjga+c8kkvTqbhCXdOoNacqQXQRu0x2tEWPPGoAU5E+VYb5Hcce6LcpTo3aEdo+JQ+3toR7xdB5NF39HA5yM2VREkrsRI6oC1E2hB91TmZjqO0uL/i11TU1NYWEhV/be//a37MLSRkZG7du2iZsnJyamvr6fu8f820IKu5o60GMpTkHfHZ1uFMsyNKD9u1J6z6PvMOTKNiupbNNbmtGG+xeiASNws47P8FR3GYuwue0j9QP7okNqs4ZGuicO9NpaxW7LK5kmM+hakHzAWLUSkA+HGt+hFte1aaskdDXyyTHxEHpCjFZLCCrXJUrxdIylRZ2Gr2XRpoTOghP+kN9l9C3LVh2ADxYdw6C9FRu1+R9/ieCvyrAN9gRZ0T2VupuMuLaxW67p165566imq8EajcfXq1bNmzaKuZERGRkZHRyclJVFDz1qt1l27dmVnZ1Ozs7INtKAruyMtLPqOVmFiqkCpjk+wjfK6lpp4RJ2qROMLj5WbLFqDmo+oU1G500S8/XbYNrJ3tIoQVKxWxyO1xcQci22Ro0KUg2WPldUWn3PwNrCKElGxEuXb1y3IkX0sWuRLtucLlRpBYqp4PzZNVF6bPy9ZndU8qD/bjSCIQKkRJONLGiYLVrJALlLmCx7QUNYtsDt3baU8qgi/lz9SEZNAzDLZaGEv0KV20jXpG0BRuUC5QyRJFdeZHVa5CVpgcuXHScaQS2tQx8s0qag8TnmsvA9vYTK172QV4FvQPZG5mo7TtDCbzXw+/8CBA07q9/f3NzQ0FBUV3X333ffff/9zzz33l7/8xSlNXV3dypUrf/zxR6f9/v8TaEFXc2daUOaU7ABgbMPFEfG2ZMqcj08bHACFg29B91TmZjpO08JqtX766afLly9//PHHPZK/vLz89ttvpy57eJSd2cRAC7p6Ai28Jdbo7b9PSwBa0D2VuZmO67SwWq1DQ0NKpTI1NfXNN9+c0AinTp1avXr1/fffHzjRdoEWE1rNlsCvtOjsVXV488afy3A8pD3USzxT5HLIT4O43+oFWtA9lbmZLghoQQjf1ta2Zs2a1NTUhoYG+6sYdpuYTKannnrq9ttvT0lJOXXqlH1/IGwALehawa+0CICJHb+N8kxVBLSgeypzM13Q0IKQ/6233iotLV22bFl4ePhtt922atWq+Pj4sLCwFStWaLXazs7OALQS0IKuUSakBSUWiDe37aXU9y1wWrjusQ2sPcYsg8OrBuMPuEQAj365VJ1nf5nDLYom2YvxW+KNJpTSJo5EArSgeypzM12Q0cJuhH//+99Xrly5dOnS1atX//Of/9j3B+AG0IKuUSaixWTXk8nXIEZHVdc9ttGTfI6IMpiO5nLcaXtsiTYDJtsLx9rHa5UX+20dcVM+0ILuqczNdMFKCw5ZA2hB11juaaE15MfExM5LEEkOWVwic5CDIx5pAwvmIa2R5ODBmujsIV0BLAZGgih2FSIq0WDv61GjLdmeoTKKkzUSpRxLlpiPB/MgBlmSAfZQH+RTv05lOvaiVoi9YOgcY8Old1ilqevxUCJEU53jfBDhOqgBRQbkaS6RPxwjfLhEJQFa0D1RgzUd0IJ1ywIt6JrAPS0oY7drZA4bLdQlqeJGPOhsXy+yCqMFnT22u+meVkHaaGyM8PFowUNz3sarO3tMlFxbanuBzkYLdUmqpIU42i2vNOrclTlejA3X3hnFMeo8IhIJTguXOB+uAUXGiPzhGOHD4hKVBGhB90QN1nRBT4vu7u6IiAjiE62BaUSgBV270KXFGJE5CFpgQ3YB+f4dPstEZ4+NNA6vgttmokiPgXibjxKKAwcMcZTqWwzIJeQb1IQTQH2rw6nM8WJsjNE753Fc5RTnY4yAIpSWE/U6RfjA3CbHqCTke+MwE0X3fA26dEFPi9zcXB6Pl5ubG7CmA1rQNQ1dWlDjZ9ii/tlG/NFb+z5sKobwLWw3++PvGfUtyPh6ukZNDOFbSPJR/KZeV5uPhxUxinm2PfqxfQsyjOA50rdwLdMWiZ3iWzjE2HAXd4RoqkucD0oWW0ARF1o4R/ig+hZEVBJnJrliA9Yt6J7K3EwX3LTo7u5eunQpj8dbunRpwLoXQAu6l85EtLCotalxUg16Eo9O4RCZg/QPznYjElE8qhFKK8S2dQsae8h1Cyw2RiIqRlGhmli3sOiad2B7lPkiGWKjRbJGosgXqdXxAjTr+BAZyokcnbFQH3KRWiNIRLPasDkx1zIdejFWjA03cUdsI7hznA/XgCJke4hAgRj5sEAp1AgfLlFJgBZ0T9RgTRfctMjNzT148CCPxzt48GDAuhdAC7oX14S0cL3b9fueiYdUvzeJJCXJPN81AHwLuqcyN9MFMS0Ix8JqtfJ42IAcsO4F0ILupQO08N1Az0jJQAu6pzI30wUxLQjHwk6LgHUvgBZ0Lx0u0MJcfIjykQzf384zMsozVQjQgu6pzM10wUoLu2Nhp0XAuhdAC7qXTlJyym13rGdqaINyGFdgZkTkkSNH6JoT0nFNgWClxcWLFw8ePEhYg5iJslqtBw8evHjxYqCZCGhB1yIbN25csFzE+BgHBTKlwLRpoRcuXKBrTkjHNQWClRZUO9hpQd0ZONtAC7q2eOaZZ8Ijo5ka2qAcZhUobHpjWmgoXVtCOg4qALRg3WhACw9MMC009J59R5gd5qA0RhS4JWndylWrPbAlJOWaAkAL1i0GtPDABHfdddcNC3/FyOgGhTCoQMlrF0NCQl5//XUPbAlJuaYA0IJ1iwEtPDNBRGRkwnolgyMdFDV5BebELkxfu9YzQ0JqrikAtGDdYkALz0xw8uTJkGnThBsKJj/GQQmMKDB38a0L4uI8syKk5qACQAvWjQa08NgEJ06cCA+PmLt4ifK51xgZ76AQ7xRY+8AjYeERSwUCj00IGTioANCCdaMBLbw0QWZmZsi0aZGzYxaL0hLWK1fmFMLPPwoIpBtjb0uYPiMsMipap9N5aT/IxjUFgBasWwxoMSkT7NmzRyqVrkgQLlu+nFs//q23hoWFcavNRGtXi0QKhaKtrW1SloPMXFMAaMG6xYAWrJuAnQZ88cUXy5YtY6duqBUU8FwBoIXnmjGcA2jBsKBcKQ5owRVLQTsJBYAWrJ8JQAvWTcBOA4AW7OgOtXqrANDCW+UYywe0YExKbhUEtOCWvaC1QAvWzwGgBesmYKcBQAt2dIdavVUAaOGtcozlA1owJiW3CgJacMte0FqgBevnANCCdROw0wCgBTu6Q63eKgC08FY5xvIBLRiTklsFAS24ZS9oLdCC9XMAaMG6CdhpANCCHd2hVm8VAFp4qxxj+YAWjEnJrYKAFtyyF7QWaMH6OQC0YN0E7DQAaMGO7lCrtwoALbxVjrF8QAvGpORWQUALbtkLWgu0YP0cAFqwbgJ2GgC0YEd3qNVbBYAW3irHWD6gBWNScqsgoAW37AWtBVqwfg4ALVg3ATsNAFqwozvU6q0CQAtvlWMsH9CCMSm5VRDQglv2gtYCLVg/B4AWrJuAnQYALdjRHWr1VgGghbfKMZYPaMGYlNwqCGjBLXtBa4EWrJ8DQAvWTcBOA4AW7OgOtXqrANDCW+UYywe0YExKbhUEtKBjr7fffvuRRx657777ijj477777nvkkUfefvttOj0N/DRAC9ZtBLRg3QTsNABo4V73vLy8meHhoaHTZ89fMH/JspuWCDj3m79k2ez5C0JDp88MD8/Ly3Pf38A/CrRg3UZAC9ZN4NcGHD16tL293Wq1Ummh1WrPnTvny3aMDP80bPtdG6Oe4TP1bX8ZYz8ru1555ZWIqKg58xfIHq3TmyxB8JM9Wjdn/oKIqKhXXnmFFUkZqRRowYiMkykEaDEZ9biX9/jx43fccQeVFlevXg0PD//HP/7hy850lSWVHe44fbrjdNeVEdeKzM9Ly8647mZhT1NTU0hIyMrsgiCAhFMXVmYXhISENDU1sSArE1UCLZhQcVJlAC0mJR8XM6ekpLS3t9t9C61Wq9frfdyRrjJZo9lex3B//ebExKTE9HsNVfdJG69YbbS40lacma1Qpqff14YlxpNlKxXSzOK2K/bMPty4evVq6PTp4vxSp3E2aP4U55eGTp9+9epVH4ros6KBFj6Tlm7BQAu6SgVNOsK9IGjhF8fCarXafYv+763W3ur0MuMwpuf1fkPaKC3MTdmqY9j+/iP1XT9Ze6ulhou46td7qzbUX/a9AQQrViwUioOGDWN2ZKFQLFixwvdaMl8D0IJ5TT0sEWjhoWBBkTwlJaWxsXHZsmV+cSxwWmQa+vGlixGruVFWdvq6Tceu7aO0sI5cbtuuSJcpDB1mPNkKqVKhwH7Z0rSqLh8rf+7cOR6Pt+Pdr8YcZINm5453v+LxeD5epvKJqYAWPpHVk0KBFp6oFSxpjx8/npSUtGTJEt+vWBCSOcxE9VanV72P779ubpSN0mLkShfmelhHeh9XNV6h+hb9bXtOj05k+cYK99xzz/wlgqChgpuOzF8iuOeee3yjog9LBVr4UFx6RQMt6OkUdKlWr14dFRXl+xULQjgHWliHew0bErO3lKnurSpzWrfIVZQ9WpydW99/3Yoly5UqtpYpMrMN7+MzV760QtyixeKCoF2xoMJDXFAat2ixL7X0SdlAC5/I6kmhQAtP1AqitPv27Zs3b56PH4Xikl5R0dHZ1Qeoo2qwbmdXH4iKjuaSbfC2Ai1YNxnQgnUTsNOAO++8c8bMmc8//zw71QderRGRkRv3vhSshKD2a+PelyIiIwPPAhO0CGgxgUC+Pwy08L3GgVfDnXfeGRYekbBeyQsJAWAQ9gFaBN556tAioIWDHGz8AbRgQ3VW6yRQUfxKr95kSd6sBWAQ1vCAFucGdefId7zPU7bpvvjdL5eq83osem/y2uttT02uLaZbI5kLTw++BavXn7vKebyAHpADunHudIVjXilARQUxOwHAIISkTwttJcJLa9D24UNws4ZfOUCd56GzXdEzWGGy6L3KS5Y/pOsZIrcdYDDhTqCFV5eOPzIBLfyhMtRBRwFXVBAjCwDDarV6RAthoUZIQIIc8cvrNPxkVICI4rXdOlO3JK0Gu/HvM4pjULTHojcNyGUVagIwpgF5mkZlMkr4seELRbE5rdo+c14hwpeh8QlypGUQS5yGCBWoUCaPldQUHGoQyfIFiSKBnoolozitQWsaUm+XYxkFcuQIXXgALehcLKykAVqwIjtU6qzAeKiYmsC4cOHCp59+StXII1qImwdVRfnyDtI/6GkV5LTq8Hme8t2oaP+QugTFjh6pEKNqUd2QvqdVWGgk7/oJWpB5TRadARXWDuJHzTkydd65AXkamtOJeQy62nyerWRzjlSdZ58BMxG0MKauqinus+g727MM/WT5E7gaHKXFvHnzPvzwQ6rJgm8baBF8NuVej9yjYgoC44knnrjhhhvuv//+/v5+wpwe0sKiP9suXt+gbcRnopo1UQlygQzFfhJEaBjQt1SIDIPqEjXacUxUaNTVqcXN9kHcmRaqwthYCZ5XhsYn56OnyQSOs1WqQgQjkG2tgqCFRXeoVpCWKihsUmMeDK0fR2kRFhY2POzz127YvbaBFuzqD7Vb6aBiCgJjZGSktrY2NjZ28+bN58+f95gWJouuUSOUINi6BdW3aKzNaRvC5qAUFZLCVp1pKK+wQlKkobgFJAzIWSyqb1HwcFPxeTLBxLQwFx8awJZAOpsEo77LBMzgIi0++ugjoVAY9Bcz0CLoTRzQHaSPiikIDKvV+r///W///v2LFy8ODQ39deljdG7PtZUI6SgMFij5xCq31qDmI+pUVM5HW4kFcFVRbDy+tqEzoDz0GDam234kDDpbhXxEtNOo6xtAUSQe3SFCEJFhAF+30KiIxCRR9CbLWL7FoForj0d3iGVy8X4zWb69orE3uEiL0tLSXbt2BfSVxkTjgBY0VRwZ/on88sH1keFhcptmbnuykeHLH57uMn0/Qsatsx/xfuMvbfVnvHOBL7c1dDnmdN3jfbsmzOkpKlyB8be//e2zzz779NNPL126ZDKZ+vr6zp8//+GHH37wwQfvvfded3d3Z2fnO++8YzQa//SnP73xxhvt7e0nT548fvz4sWPHjh49+vLLL7/00ksvvvjiwYMHDxw48MILLzz77LP79++vq6vbt2/f3r179+zZU1NTU11drdfrKysrH3nkEZ1OV15evm3btq1bt2o0mgcffHDLli1qtbqoqGjz5s35+fmbNm269957N27cmJOTs2HDhrvuuisrKysjI2PdunUSiSQtLS0lJUUsFq9Zs2bVqlVCoXD58uVLly699dZb+Xz+4sWLFy5cePPNN8+fP//GG2+cM2fOrFmzIiMjZ86cyePxQmeE0RxwOZ2Mc7RoaGhYsWLFf/7znwlPeK4nAFrQtCAllNCVRul2b0KODr9flb1hJ/bVnZad2b9WMfZRhDNl0ue9C2pH6ZRNBtc9NPXxOJl3qHACxg8//LB8+XKhULh69eo1a9aIxeKUlJT09HSJRLJu3brMzMysrKy77rprw4YNd99998aNG++9995NmzYVFBRs3ry5qKhIrVY/8MADDz74oEaj0Wq127ZtKy8v1+l0jz76aGVlpV6vr66u3r179549e/bu3btv376nn356//79zz777AsvvNDU1HTw4MEXX3yxpaXl5ZdfPnr06LFjx06cOHHy5Mn29vY33njjzTffNBqN77zzTmdnZ09Pz3vvvffBBx98+OGHFy5c6OvrM5lMly5d+vTTTz/77LMvv/zyq6+++vrrr7/99tu///3vP/zww48//jg0NPTzzz9fu3bt8OHDq1atmhYamv4bHacxQLPxG/e+FDZzZkfA/3vttdeefPLJlJSUjIyML7/80uMLgIMZgBY0jUYZRm20MLdtkWYrFenEuH/9+1PbpVKlIjuJiDFnbpSpyh6VJlaTXLnWVbbBgEWjI/6Z2qpa+kes1u9fLZMmJSamSYury3AIdZUlKYrvVSiU6YnKRvN1q3W0ZOlO3IcYvlivSspWKKXSLW1YAhstHNtD1oMnTkxMSlf8rkqFf/OHzh4ytw//j4qeFbtsJc0RxCnZtre/nD4jTL5+gw/bFwBFnzhxIikpKSMj4/Tp0/TXLZy04tyfG/e+FBoamhvY/0pLS5VKZUVFxVtvvRUAZ4qfmgC0oCm0Cy2+bsy+rw2bxjFhE0HDRxTEp3Ks1u8PK4tPXTM3ytINJkrhH1ZJf2d7vmV0709tChmOBKt1+NXiGMxl6Sq7raoXh4r5eWnxqyPDRxSKFixStvW6+dTvTl229lbJSOq8X5Vdd9lGC8f2kFX0VqWVnSYmm0yGdIwWdPaQuX35/zfffBM9a/YiUaqnw9m2t7+IiJ6dlp7uy9axXHZ7e/vatWslEsnrr79ONGVK0YKLcaJYPmP8Uj3QgqbMLrSwjlw+VqZIkyr2nDaPWLu235y4gfg2jiI7U9X2NfZRHdKtwKswGaTVvc6VUSeRbC4LpSL8aNdvsxupH/K80ihdLsU/wqNQ5ErTq7tI38KhPbaKrjRKt54mK8VLprOHzODr/70AxlRAhdVqvXjx4okTJ6j6s04L2wveo4vhY6xR65pr0ZNj7PfohoBz6xZUMwX3NtCCpn0v12+w3fJbL+Lj/jVzlwn/OM77VarnzVTf4nTd4f4RF1pYzY0bitt+slU3/GpZ9u/6R35qU9x7GHccrMPGsiWEb2H/RjROC0rJLr6Fqc3QYbbRwrE9ZK96q9LIZl9plNp8iwn3kLl9/79HwNj2VvB7FeNJzjYtyAel3NKC8jiW98wAWox3DrC+H2hB1wTD7xuy12QXb1VIM3diDxJdN7dtyVZs3Vmcm11vIv6UZm/ZWZwrLT5ituIf7HTwLaxW609dhtxELM296YpHT39PTDcdUaX/WlG2RaF6lFy3cKTFaEUb0stexciCtSRTUbZVIc019A6T6xZO7SG7RTZbpXi8zLZuYeuIuz1kbn/8TxMY2976POgnoNzIzQAtzvZmrRfFy1B+Av6at8koTtakrhcJDQO6tloh9voeYn++FosUkiCKXYWISjT8QqPWkB8TEzsvQSQ5ZHFOjMcFiU0QxaWpJUr7w7tACzfG5OohoAVXLRdM7Z4QGFMcFR7FiRpv2kddkippwQfxs93ySqPOZBTHqPPOWvRE2CgiSFRLRfzD/djbfGRcQl2dOhx7sc7uW+AxpiiJdQaUDFw4mIfOIV/1AFoE0wVq6wvQIgiNysUu2YCxeoxFb0AFE7QYkEvIV+pss0m24Bz6jgY+H7HFBUGQuBKjQ/TZjgY+lRYuiakv5cFMFBcvPfptBlrQ1wpS+laBMYEBqCBEn/xMlLoEQdrwW/5zpG+BhYl19C2OtyLP4pFCpE3lOFR0jZoYKi2ojgieWGdABbuJ97SxV8fBt/DtRcJq6UALVuWHyh0VcAIGjopZwf2wrKMA4/41eVroz3YjiFyk1ggS0ay2Qb0tTCzGD11LTXwyKlaifKRGjc1NWbSG/LhEVIyiQjW2bqE3WdTa1DipBj3pkrhvAM1JjZNpRNL8VFi3GNeAwXAAaBHYVhw5vTOzvt9qxYKN2N/sC+wmT7J1dmBsM34eEQ2osMnJAC3cPs403mqH//fDM1GTvIJ8lx1o4TttGSnZFp+qa7vU4a0LRsoO1EK++eabqOjoaaGh4FXYTQS0sEsBG2wpALTwtfJuInngMULs73ifKYtR4i+HX2lUPG5/jw9/pa67asXNMUvWJKqOmK3D/fWbE7OVCmlmMR5parT89Pvaul7dqdiiyF6TTsQI8XXffFf+N99888QTT/iufM6VHBEZmWs47P87ff/XmGs4DO9yB+b5CbTwtV3GiOThGCOkt0rZaLZae6vLircUn7pmHT6iKjtjb5Xt1W67b9FbLTVcxI9e763aUH+ZEimkf09i4h48uMh1PDqIvQzY4L4CN8ydu05b7f+x2/81rtNW3zB3LvctFoQ9AFr42qgukTycY4RYex8vbvupt2pLm/nV4rIzw6dKyrpGlyicaGFulK2QKokQI9nStKou62j55uelJGZc3yT3dTehfN8qkJScwk/J8P/Y7f8a+SkZSckpvlUTSvdKAaCFV7J5kGl0NCdCdFAieXyPxwjBXsYufryq7Miw9dqpsserdm49Rfl6hhMtrBTfor9tz2kz0MIDW3A4aX19fVhEpP/Hbv/XGBYRWV9fz2FTBW/TgRa+tq0zLfBIHtQYIVbr9a6dNxOhA4fblLziVymwIGHw/THVisxi7KtHw72GXKlia5kikwiNPlp+EPsWr7766sGDB31tqgAvPzIqKqVom/+Hb3/WmFK0LTIqKsANMWWbB7SYsqbnUsf37t372GOPcanFPmjr7t27Q0Onl5y86M/h2591lZy8GBo6fffu3T4QD4pkQAGgBQMiQhG+VuCPf/zj5s2bfV1L4JefkZERET07KIFRcvJiRPTsjIyMwLfClG0h0GLKmp5LHf/ggw/Wrl3LpRb7rK0ZGRmhodODbEoqpWhbaOh0QIXPzhpmCgZaMKMjlOJTBb777ruFCxf6tAoOFb579+7IqKiwiEh+SsY6bXWu4fDGvS9x7pdrOLxOW81PyQiLiIyMioIJqMA/A4EWgW8jaCGmwIwZM0ZGqOv/U12W+vr6pOSUG+bOjYiM5Ojvhrlzk5JT/PkE1J49e1YkCCMio6aFhk6bxsnfjLCwmxcsLCgo+Pbbb/18DQAt/Cw4VOelAkuXLv3888+9zAzZprwCdXV1kdHRMyOjliLZ2dUHfvPHs8Wv9HLxp3zutaTNW29cxOfxeDKZzJ+GBVr4U22oy3sF7rzzznfeecf7/JBzCitwzz33hIRMExeU+vMRL1/XVXjgjdnzF8y76aZ//vOf/rEt0MI/OkMtk1XgwQcf/P3vfz/ZUiD/1FOgsLBweljY5uYOXw/frJS/cMWaufPm+8eqQAv/6Ay1TFaBJ598Uq/XT7YUyD/FFGhvb+fxeIq6o6wM5f6p9IYFi+644w4/GBZo4QeRoQoGFDh69KhKpWKgIChiKimw6Fe/uu0OuX9GbbZq+c3RP/N4vAsXLvjasEALXysM5TOjwNmzZyUSCTNlQSlTQ4GPPvqIFxLySO9P7sbxc4O68/gHaE2WirODFX22bXdZHL8rVapHRXWDdNOfb09Nri12LIFu3vFz3bxU6IcVb6DF1LhuuN/Lb7/9dtGiRdzvB/TAfwqUlpbesGCx+7FYW4nYvyWuKkTkHR7TQk/hjfu68KNDup4hGsk8a0bmjj2zZs/xtbJAC18rDOUzpsD06dP/+9//MlYcFBTsCqSkpN66VuZ+aHalRcUR7CvlAokofnt3hcmia6sVJsgFMoSPtmr7LPpmDV+5Q5iQj562Dei2EjpaRclygSw1LqdVa3cC+sx5hUhsgiguTS2xfbTcKE5r0OxXC3ab8YYNojI0p3OMWmJlaoEUFSSKBPoB913QmywPvXEpJCTE1/YEWvhaYSifMQXi4+O//PJLxoqDgoJdAcHy5StzCt0Pta60UBWlIm0Wvclc8HBrqalbklZTTExPtVTEP9yvb9aEo8d0dh6YLEQJWr1cWIvNRxUbalU9NpDoDCi/khjrB/PQObgTg9FC22cUJ9eWmiz6ziaB4ljFWLXEPNCNt3xAnqbOOzexq+GHodwPVUzmlORNJjPkDTIFsrKyzpwZ/axgkPUOukZseyUAABAiSURBVMO4Asu8ooW+x5glQ+Kkmpwjg/qOBj4fEchQ7IcgcSVGzLewAcDRtzjfjxaicWko8uxABckS6tQWiSWcFiaL+gF51kmLthKVtFjc10ItxA35/DCU+6GKyZwDQIvJqBdseR944IEXX3yRTq8++eST48ePH+Xmv7feeuuXX36h001I414BOrSooE4K5aBoj6X8uFF7zqLvM+fINCrqXf/xVuTZgfFoUdFhLO606E1D6gfy7YsfOgNqn3EqUPJHfQuTRX+yNr6kIUtSocbQQvFgXGoBWri3sv0o0MIuBWxY9+zZU1VV5UaId955J/H226dPnx4ybVpYeERYRCQXf9NnzODxeHPnzd++fbubzsKhCRWgQwt93wCakxon04gQkRBfIdC11MQj6lQlGl94rNxkwf5MRsVKlI/UqM/i6xZj+hYdrSIEFavV8UitbebKZBktXJqfSlm3wBc2zDmyOfyH+wl3wU0tQIsJDU0kAFrQFGpKJPvDH/5QVFQ0XlczMzN5PN7iNWmbnjnuxmHnxKHyrq+TCrdGzpoze07MqVOnxusy7HevAC1akLNGPjkxzg/qyCUHciZq4hUI71rih2kiP1Th3qDujwIt3OsztY7++c9/Hu+d1Vv4S2bNvUl95M/eXWkBm2u57F5eSMjTTz89tSzNUG/Zp8VZozg5P6u5v7S5Vpi8Q0WSwxfnmx+G8tzcXIYs45NigBY+kZWjhf71r39dvHixa+NXrl494WP1vrg+/VNmmvrhkJCQd99917XjsMe9AuzTwmTRnzcXN7cXNPeWk+8A+ui08QMtZs6c6V5wdo8CLdjVn17t10eGfxq2/3z6DYpp06Zdv36d2qzq6urpM8IeOfd/fXQRBkKx8b+Wz4+NpfYatukoEBC08OlMF6VwX9Pi8uXLy5cvpyM7W2mAFmwp70m918xdHacPb01U/O706Y7+7z3J6mnaW2+99erVq9Rcs+fMSSrcGghjuk/bMGPmTH9+NYiqMHe3A5wWuuZa9CRjyxi+pkVtbe1DDz0UyCcD0CKQrePQNvPz0jLbuxDmRpmq7FFpYnUXZWdXmazRbLUOX6xXJWUrlFLpljazg5PgUNp4f2RmZnZ2dtqPdnR0TAsN9ekwHSCFL8vIWSYI6Ds7u1ECZyPAacHsurdPafH555/Pnj27r68vcIzr2hKghasmAbqHAgZzoyzdYMLaSdlJ0KK3SmboJyDxflV23WVPO7Nly5aXXnrJnquoqGjeLbcFyIDu02ZseubEjBkz7B2HDToKMEgLe/yP2PUNWPyPs71Z60VYSA9pjSQHjy7VrHGO1YGniZeh/ATbGxjldRp+MipARPHabh35EjhTp42PaPHLL7+8/PLLCxcufO655+hozmIaoAWL4ntWNQUM5kZZWReem7ITp8WVRulyqUKpwH650vRqIpUHFe3evbu6utqeISUlNV4yQSAgpq5Gdst57OI/fTQc2MUMvg3maNEtWVWhxuN/6Foa5IcG1SWp4kY87mxfL7LKRgunWB3qklTsPW2TRX+2W15p1PW0CnJaiZAh5btR0f4hxn0LMaP/Fi5cKBAIQkJCsrOzOfHZSqAFZy5hChgotGjKVh0bxvow3KbCZqIovoWpzdBh9rR7ra2t999/vz3X6tWi5Vn3sDuO+612Ho83PIyLae8/bLhVgDFanG6ILzRSDD0gT9MUkLHNbW/PUSKC4HsG5BKNirIKrW/WRGHRCfEgIhJEaBhgnBZ9jP5raWn5+OOP//Wvf7nVOIAOAi0CyBjumzImLazDXTt/na7YWqYqUUiJdYv3DdmZirKtCmmuodfzoa+np2fdunX2lgAt7FJM8Y3Dhw+7KsAYLSiROSqO2HwLm9/QNyBPs/kW9vhRBD/UJQgendCiP+fiWzTW5rQx71u4KjCl9gAtppS5J+6s2Wy+5ZZb7OmcaXF+UHeW/HhA39DoNvUWz+227cs2lFdwKXeUNB9f6ZdL1XlkFFLn7OdGX+7Vj1fLOPvBt7Db3WnjzJkz69evT0hIcGIGc7TA43/g4UDiZLXFZ7HJJUQiikc1QmmFmFy3cKIFlgaRi9QaQSKa1YZNW2kNaj6iTkXlRPBzxn0LJ1mm2p9Ai6lm8XH7SzyP8csvv4SEhBBB96qqqubPv8lhJqpZw1usKTiLD+sdDXyH2QN6Yz3xZRvKrILzcO8WNkTiip5BexRSp+zaSoSHBazGGzNeLePsB1qMe3LgB1yZwSAtnOwYgH/CshbQwv0FMlWONjU12Seg+Hz+V199ZbValy1bdtttS51owVdqhIXt2FoiSQvHB1HwYJ9YuDejOAYLOKo3DchltgVM7O4P+5KaUcKPDV8ois1p1eJfs+HL0PgEOdKC3x5WIvz1akEOGi+QI41GOYoKZamxMhIAGEuwSW2VaUi9XY5lFMiRI6S7g5cvLNQIibB0BBX6zAVqeWyCKDYBERkG9CZK7Y5kAlrQOd3PnDkjl8uFQuHhw4eBFnQUC5o0QIugMeVkO4Ki6N69e61WK4Ig3d3d7733nkgkcp6JwsdfbWV+ajP+ZYJCo97lQRR1CYoFlD5SIUbVorohfU+rkOKC2CYHyLt7nQElPnGjN5lzZNhHabSViC0G9dlWIS8fxf0Y7BGXOjsSCFoYU1fhX9HpbM8y2OKMkjQaVBXhj1Titehq8+NHP5iDZJ0cI8opcSfL4/Gio6NnwT8aCoSHh0dHR8+/6aYJv4YUgF6Cd00C3wJoMdlBNmjyX716NTw8vK+vT61Wt7S0bNu2zWAwjEkLfd+AfL1G1YbPRLk8iKJvqRAZBtUlarTjmKjQqKtT2z/LTI7mo+O1qjA2VoI/xCJD45Oxj2tS5pptn7XBrm2SLvh1TtDCojtUK0hLFRQ2qSlrGLbsZ9vF6xu0jdh3dVRFo9+CdmKV06jB4/G+++67f8E/twr09vaqVKq5c+fu2rVrqUAAtAiaEWDCjgAtJpRoCiU4cOAAgiC7du2qqamJjY394osvxqYFPg0llMhjnXwL/EEUbA5KUSEpbNWZhvIKKyRFGupnLJ3Ga6pvUfBwU/F5+rQwFx/Cv6HW2SRw9V1MFl2jRihB+JUD1A/m5KET+BbwBK2b0/2TTz5Rq9Xz5s3bu3fvyAgWrozhmSjy6YOKxh38h3v1+KcvBJKG4vPtqcm1xY7Thk6kt/1pf/KCfhY6xeJpwLcAWri5OqbioY0bN+bl5WVlZRHLGOPSAl8h4OHDtNODKHqTRVUUS0z+6AwoDz1GXZG20aKzVchHRDuNur4BFEXi0R0ihFhUoE+LQbVWHo/uEMvk4v1m+9hhKx+7vAcLlHzsKRr8azzUKvT22h1HCli3GO+Md+UEkZJhWtg9SBs2sDcq8LcuhnQ99nlItw9TkGtpehPtLI7ngP1Ect0AWgAtxrtApuj+K1euhIWFzZ0794UXXrBarc60oH1puV5sgb8HaOHmpLf7E9Q0ntDCKE5ARVJUYH9mwc3TBzg2tIb8mJjYeQkVKpNtTtI5Ogj+iAQWHSRNLcE+nDeArueHzxXEOmRpECVjEURiiQ/zmVyaQfuUBloALagnP2xjClRXV0dERPzwww9ACzgh3CvgGS0W2x6N01Yiorohd08f2JwM2wKV3kYL5+ggOgNKvoExmIfOwZbHRn0LAjC9SCL5wPfxGr7iWIXJKHZsBv2bGKAF0ML95TDVj4JvMdXPALf9X7lq9fI7aQaGcX5mwd3TB2PSwjk6iIX6PW3bDKQTLU43xCvbSR4QDXBuBnnU7QSXyaJ7/3ugBdDC7dUw5Q8CLab8KeBOgNzc3AWC1fQGXOdh2t3TB2PSwiU6CLWEAiV/LN9i1B3R232LtAYtMftkq2UCThC9U9S3zQgLc6fFFDgGtJgCRp5EF1mnhZvXtu2DFFMfvYF1C0/PlEOHDs2YGW43hNsNZ1q4e/pgbFq4RAfBn1+Ik2lE0vxUbN3Cou/rRlalCpStpfaljpaa+ERUrET59nULr2ixLONu+PwJ0MLTC2RqpWebFvaZa3c3gJTnoNwlczuWYRmBFl6c3DNnhmfu2DOhtlxPEBYesW/fPi/0CaYsQItgsibzfWGAFs6frDGKkzWp60VCw4D9ERciBpzeZMGCiCSIYlchohINv9BIPhUjkhyyOCd2fh5mUpwgxjKghRcnUHFxcUT0bK7DwH37BVnojXPneiFOkGUBWgSZQRnuzuRp4fzJGpNRHKPOw+J54BGliPB/LRXxD/djQUTIgIC6OnU49jKH3bdwTjzG8zC0H4Ucb2gAWnh39sQtWkx79YIBqI9nPh/tz9j+BI/HO3XqlHfiBFMuoEUwWZP5vkyaFi6frCEnlLGHHfmI7ds1CBJXYnQI72F7uIWkhUviMZ6HAVowb39aJVoslpgbbpy/RFBxfthHQzZbxd6uLOHxeI8//jgtIYI9EdAi2C08uf5NmhYW50/W2GlB9S2OtyLPDmC+hbSpHB/0dY2amPF8CzzxGM/DAC0mZ+tJ5l6+YkXo9Okr5JvKjJfZGtwZrFf6271zYhfODA9vbGycpDJBkx1oETSm9ElHJk8Ll0/WjD4bo2upiU+mPq9i0Rry4xJRMYoK1di6hd5kUWtT46Qa9CT+PAw1sevzMEALn5wCHhT6zDPPxC1ezOPxwsIjZt04f/a8m7j4i5g1JyQkJCIyctOmTR50fgokBVpMASNPoosM0GLSgziDN4zui4J1i0mcKaNZr1+/fvTo0Zqamv/DzX/PPPPMxx9/PNof2CIVAFqQSsD/YykAtBhLFdgHCkxFBYAWU9Hq9PsMtKCvFaQEBYJbAaBFcNt3sr2TSCT8lAz3EzjBcVT3/iAEAprs6QL5g1oBoEVQm3fSnXvooYdibl4UHDxw34ucmubwiIhJCwYFgAJBqwDQImhNy0jH+vr6QkJCKoPuOXpXcixOXJuUnMyIaFAIKBCUCgAtgtKsTHZqQdwiQeZG1+E1mPbo3vtbyLRpJ0+eZFI4KAsUCC4FgBbBZU8f9Obo0aM8Hm9z85+CCQ9Ofbl52crlCQk+EA+KBAWCRwGgRfDY0nc9yc3NnRkRWXLygtMgGxx/xv9aHh4Ree3aNd8JCCWDAkGgANAiCIzojy5kZmaGzpixTlsdHIQgelHe+XXs0oSIyMhz5875Q0SoAxTgsgJACy5bz79t1+l002fMmDX3pts3PXhfy7uPXeRqCLltb38hf6xh0erkkJAQ4cqVFovFv0JCbaAAJxUAWnDSbCw2urS09OYFC0NDQ3mc/RcSEhIZFZW+dm1HRweLSkLVoAC3FABacMte0FpQABQABdhRAGjBju5QKygACoAC3FIAaMEte0FrQQFQABRgRwGgBTu6Q62gACgACnBLAaAFt+wFrQUFQAFQgB0FgBbs6A61ggKgACjALQWAFtyyF7QWFAAFQAF2FABasKM71AoKgAKgALcUAFpwy17QWlAAFAAF2FEAaMGO7lArKAAKgALcUgBowS17QWtBAVAAFGBHAaAFO7pDraAAKAAKcEuB/wdeksT/xC417AAAAABJRU5ErkJggg==;" vertex="1" parent="1">
          <mxGeometry x="110" y="690" width="697" height="673.2" as="geometry" />
        </mxCell>
        <mxCell id="m3cZQxR7HmldRvMj8H7n-10" value="Activity" style="rounded=1;whiteSpace=wrap;html=1;arcSize=40;fontColor=#000000;fillColor=#ffffc0;strokeColor=#ff0000;" vertex="1" parent="1">
          <mxGeometry x="315" y="120" width="120" height="40" as="geometry" />
        </mxCell>
        <mxCell id="m3cZQxR7HmldRvMj8H7n-11" value="" style="edgeStyle=orthogonalEdgeStyle;html=1;verticalAlign=bottom;endArrow=open;endSize=8;strokeColor=#ff0000;rounded=0;" edge="1" source="m3cZQxR7HmldRvMj8H7n-10" parent="1">
          <mxGeometry relative="1" as="geometry">
            <mxPoint x="375" y="220" as="targetPoint" />
          </mxGeometry>
        </mxCell>
        <mxCell id="m3cZQxR7HmldRvMj8H7n-12" value="Condition" style="rhombus;whiteSpace=wrap;html=1;fontColor=#000000;fillColor=#ffffc0;strokeColor=#ff0000;" vertex="1" parent="1">
          <mxGeometry x="335" y="220" width="80" height="40" as="geometry" />
        </mxCell>
        <mxCell id="m3cZQxR7HmldRvMj8H7n-13" value="no" style="edgeStyle=orthogonalEdgeStyle;html=1;align=left;verticalAlign=bottom;endArrow=open;endSize=8;strokeColor=#ff0000;rounded=0;entryX=0;entryY=0.5;entryDx=0;entryDy=0;" edge="1" source="m3cZQxR7HmldRvMj8H7n-12" parent="1" target="m3cZQxR7HmldRvMj8H7n-15">
          <mxGeometry x="-1" relative="1" as="geometry">
            <mxPoint x="515" y="240" as="targetPoint" />
          </mxGeometry>
        </mxCell>
        <mxCell id="m3cZQxR7HmldRvMj8H7n-14" value="yes" style="edgeStyle=orthogonalEdgeStyle;html=1;align=left;verticalAlign=top;endArrow=open;endSize=8;strokeColor=#ff0000;rounded=0;entryX=0.5;entryY=0;entryDx=0;entryDy=0;" edge="1" source="m3cZQxR7HmldRvMj8H7n-12" parent="1" target="m3cZQxR7HmldRvMj8H7n-19">
          <mxGeometry x="-1" relative="1" as="geometry">
            <mxPoint x="375" y="320" as="targetPoint" />
          </mxGeometry>
        </mxCell>
        <mxCell id="m3cZQxR7HmldRvMj8H7n-43" style="edgeStyle=orthogonalEdgeStyle;rounded=0;orthogonalLoop=1;jettySize=auto;html=1;entryX=0;entryY=0.5;entryDx=0;entryDy=0;" edge="1" parent="1" source="m3cZQxR7HmldRvMj8H7n-15" target="m3cZQxR7HmldRvMj8H7n-17">
          <mxGeometry relative="1" as="geometry" />
        </mxCell>
        <mxCell id="m3cZQxR7HmldRvMj8H7n-15" value="Activity" style="rounded=1;whiteSpace=wrap;html=1;arcSize=40;fontColor=#000000;fillColor=#ffffc0;strokeColor=#ff0000;" vertex="1" parent="1">
          <mxGeometry x="520" y="220" width="120" height="40" as="geometry" />
        </mxCell>
        <mxCell id="m3cZQxR7HmldRvMj8H7n-44" style="edgeStyle=orthogonalEdgeStyle;rounded=0;orthogonalLoop=1;jettySize=auto;html=1;entryX=1;entryY=0.5;entryDx=0;entryDy=0;" edge="1" parent="1" source="m3cZQxR7HmldRvMj8H7n-17" target="m3cZQxR7HmldRvMj8H7n-10">
          <mxGeometry relative="1" as="geometry">
            <Array as="points">
              <mxPoint x="740" y="140" />
            </Array>
          </mxGeometry>
        </mxCell>
        <mxCell id="m3cZQxR7HmldRvMj8H7n-17" value="Activity" style="rounded=1;whiteSpace=wrap;html=1;arcSize=40;fontColor=#000000;fillColor=#ffffc0;strokeColor=#ff0000;" vertex="1" parent="1">
          <mxGeometry x="680" y="220" width="120" height="40" as="geometry" />
        </mxCell>
        <mxCell id="m3cZQxR7HmldRvMj8H7n-19" value="Activity" style="rounded=1;whiteSpace=wrap;html=1;arcSize=40;fontColor=#000000;fillColor=#ffffc0;strokeColor=#ff0000;" vertex="1" parent="1">
          <mxGeometry x="315" y="296" width="120" height="40" as="geometry" />
        </mxCell>
        <mxCell id="m3cZQxR7HmldRvMj8H7n-20" value="" style="edgeStyle=orthogonalEdgeStyle;html=1;verticalAlign=bottom;endArrow=open;endSize=8;strokeColor=#ff0000;rounded=0;" edge="1" source="m3cZQxR7HmldRvMj8H7n-19" parent="1">
          <mxGeometry relative="1" as="geometry">
            <mxPoint x="375" y="440" as="targetPoint" />
          </mxGeometry>
        </mxCell>
        <mxCell id="m3cZQxR7HmldRvMj8H7n-21" value="Condition" style="rhombus;whiteSpace=wrap;html=1;fontColor=#000000;fillColor=#ffffc0;strokeColor=#ff0000;" vertex="1" parent="1">
          <mxGeometry x="335" y="365" width="80" height="40" as="geometry" />
        </mxCell>
        <mxCell id="m3cZQxR7HmldRvMj8H7n-22" value="no" style="edgeStyle=orthogonalEdgeStyle;html=1;align=left;verticalAlign=bottom;endArrow=open;endSize=8;strokeColor=#ff0000;rounded=0;entryX=0;entryY=0.5;entryDx=0;entryDy=0;" edge="1" source="m3cZQxR7HmldRvMj8H7n-21" parent="1" target="m3cZQxR7HmldRvMj8H7n-24">
          <mxGeometry x="-1" relative="1" as="geometry">
            <mxPoint x="510" y="470" as="targetPoint" />
          </mxGeometry>
        </mxCell>
        <mxCell id="m3cZQxR7HmldRvMj8H7n-23" value="yes" style="edgeStyle=orthogonalEdgeStyle;html=1;align=left;verticalAlign=top;endArrow=open;endSize=8;strokeColor=#ff0000;rounded=0;entryX=0.5;entryY=0;entryDx=0;entryDy=0;" edge="1" source="m3cZQxR7HmldRvMj8H7n-21" parent="1" target="m3cZQxR7HmldRvMj8H7n-29">
          <mxGeometry x="-1" relative="1" as="geometry">
            <mxPoint x="370" y="550" as="targetPoint" />
          </mxGeometry>
        </mxCell>
        <mxCell id="m3cZQxR7HmldRvMj8H7n-45" style="edgeStyle=orthogonalEdgeStyle;rounded=0;orthogonalLoop=1;jettySize=auto;html=1;entryX=0;entryY=0.5;entryDx=0;entryDy=0;" edge="1" parent="1" source="m3cZQxR7HmldRvMj8H7n-24" target="m3cZQxR7HmldRvMj8H7n-27">
          <mxGeometry relative="1" as="geometry" />
        </mxCell>
        <mxCell id="m3cZQxR7HmldRvMj8H7n-24" value="Activity" style="rounded=1;whiteSpace=wrap;html=1;arcSize=40;fontColor=#000000;fillColor=#ffffc0;strokeColor=#ff0000;" vertex="1" parent="1">
          <mxGeometry x="500" y="315" width="120" height="40" as="geometry" />
        </mxCell>
        <mxCell id="m3cZQxR7HmldRvMj8H7n-50" style="edgeStyle=orthogonalEdgeStyle;rounded=0;orthogonalLoop=1;jettySize=auto;html=1;" edge="1" parent="1" source="m3cZQxR7HmldRvMj8H7n-27" target="m3cZQxR7HmldRvMj8H7n-3">
          <mxGeometry relative="1" as="geometry" />
        </mxCell>
        <mxCell id="m3cZQxR7HmldRvMj8H7n-27" value="Activity" style="rounded=1;whiteSpace=wrap;html=1;arcSize=40;fontColor=#000000;fillColor=#ffffc0;strokeColor=#ff0000;" vertex="1" parent="1">
          <mxGeometry x="680" y="315" width="120" height="40" as="geometry" />
        </mxCell>
        <mxCell id="m3cZQxR7HmldRvMj8H7n-29" value="Activity" style="rounded=1;whiteSpace=wrap;html=1;arcSize=40;fontColor=#000000;fillColor=#ffffc0;strokeColor=#ff0000;" vertex="1" parent="1">
          <mxGeometry x="315" y="444" width="120" height="40" as="geometry" />
        </mxCell>
        <mxCell id="m3cZQxR7HmldRvMj8H7n-30" value="" style="edgeStyle=orthogonalEdgeStyle;html=1;verticalAlign=bottom;endArrow=open;endSize=8;strokeColor=#ff0000;rounded=0;" edge="1" source="m3cZQxR7HmldRvMj8H7n-29" parent="1" target="m3cZQxR7HmldRvMj8H7n-31">
          <mxGeometry relative="1" as="geometry">
            <mxPoint x="370" y="660" as="targetPoint" />
          </mxGeometry>
        </mxCell>
        <mxCell id="m3cZQxR7HmldRvMj8H7n-31" value="Condition" style="rhombus;whiteSpace=wrap;html=1;fontColor=#000000;fillColor=#ffffc0;strokeColor=#ff0000;" vertex="1" parent="1">
          <mxGeometry x="335" y="507" width="80" height="40" as="geometry" />
        </mxCell>
        <mxCell id="m3cZQxR7HmldRvMj8H7n-32" value="no" style="edgeStyle=orthogonalEdgeStyle;html=1;align=left;verticalAlign=bottom;endArrow=open;endSize=8;strokeColor=#ff0000;rounded=0;entryX=0;entryY=0.75;entryDx=0;entryDy=0;" edge="1" source="m3cZQxR7HmldRvMj8H7n-31" parent="1" target="m3cZQxR7HmldRvMj8H7n-34">
          <mxGeometry x="-1" relative="1" as="geometry">
            <mxPoint x="510" y="690" as="targetPoint" />
          </mxGeometry>
        </mxCell>
        <mxCell id="m3cZQxR7HmldRvMj8H7n-33" value="yes" style="edgeStyle=orthogonalEdgeStyle;html=1;align=left;verticalAlign=top;endArrow=open;endSize=8;strokeColor=#ff0000;rounded=0;entryX=0.5;entryY=0;entryDx=0;entryDy=0;" edge="1" source="m3cZQxR7HmldRvMj8H7n-31" parent="1" target="m3cZQxR7HmldRvMj8H7n-39">
          <mxGeometry x="-1" relative="1" as="geometry">
            <mxPoint x="370" y="770" as="targetPoint" />
          </mxGeometry>
        </mxCell>
        <mxCell id="m3cZQxR7HmldRvMj8H7n-48" style="edgeStyle=orthogonalEdgeStyle;rounded=0;orthogonalLoop=1;jettySize=auto;html=1;entryX=0;entryY=0.5;entryDx=0;entryDy=0;" edge="1" parent="1" source="m3cZQxR7HmldRvMj8H7n-34" target="m3cZQxR7HmldRvMj8H7n-3">
          <mxGeometry relative="1" as="geometry" />
        </mxCell>
        <mxCell id="m3cZQxR7HmldRvMj8H7n-34" value="Activity" style="rounded=1;whiteSpace=wrap;html=1;arcSize=40;fontColor=#000000;fillColor=#ffffc0;strokeColor=#ff0000;" vertex="1" parent="1">
          <mxGeometry x="510" y="497" width="120" height="40" as="geometry" />
        </mxCell>
        <mxCell id="m3cZQxR7HmldRvMj8H7n-47" style="edgeStyle=orthogonalEdgeStyle;rounded=0;orthogonalLoop=1;jettySize=auto;html=1;" edge="1" parent="1" source="m3cZQxR7HmldRvMj8H7n-39" target="m3cZQxR7HmldRvMj8H7n-41">
          <mxGeometry relative="1" as="geometry" />
        </mxCell>
        <mxCell id="m3cZQxR7HmldRvMj8H7n-39" value="Activity" style="rounded=1;whiteSpace=wrap;html=1;arcSize=40;fontColor=#000000;fillColor=#ffffc0;strokeColor=#ff0000;" vertex="1" parent="1">
          <mxGeometry x="315" y="598" width="120" height="40" as="geometry" />
        </mxCell>
        <mxCell id="m3cZQxR7HmldRvMj8H7n-49" style="edgeStyle=orthogonalEdgeStyle;rounded=0;orthogonalLoop=1;jettySize=auto;html=1;entryX=0.5;entryY=1;entryDx=0;entryDy=0;" edge="1" parent="1" source="m3cZQxR7HmldRvMj8H7n-41" target="m3cZQxR7HmldRvMj8H7n-3">
          <mxGeometry relative="1" as="geometry" />
        </mxCell>
        <mxCell id="m3cZQxR7HmldRvMj8H7n-41" value="Activity" style="rounded=1;whiteSpace=wrap;html=1;arcSize=40;fontColor=#000000;fillColor=#ffffc0;strokeColor=#ff0000;" vertex="1" parent="1">
          <mxGeometry x="510" y="598" width="120" height="40" as="geometry" />
        </mxCell>
      </root>
    </mxGraphModel>
  </diagram>
</mxfile>
